<?xml version="1.0" encoding="utf-8" standalone="no"?>
<!DOCTYPE svg PUBLIC "-//W3C//DTD SVG 1.1//EN"
  "http://www.w3.org/Graphics/SVG/1.1/DTD/svg11.dtd">
<!-- Created with matplotlib (https://matplotlib.org/) -->
<svg height="279.274375pt" version="1.1" viewBox="0 0 352.38125 279.274375" width="352.38125pt" xmlns="http://www.w3.org/2000/svg" xmlns:xlink="http://www.w3.org/1999/xlink">
 <metadata>
  <rdf:RDF xmlns:cc="http://creativecommons.org/ns#" xmlns:dc="http://purl.org/dc/elements/1.1/" xmlns:rdf="http://www.w3.org/1999/02/22-rdf-syntax-ns#">
   <cc:Work>
    <dc:type rdf:resource="http://purl.org/dc/dcmitype/StillImage"/>
    <dc:date>2021-06-21T12:44:44.804431</dc:date>
    <dc:format>image/svg+xml</dc:format>
    <dc:creator>
     <cc:Agent>
      <dc:title>Matplotlib v3.3.4, https://matplotlib.org/</dc:title>
     </cc:Agent>
    </dc:creator>
   </cc:Work>
  </rdf:RDF>
 </metadata>
 <defs>
  <style type="text/css">*{stroke-linecap:butt;stroke-linejoin:round;}</style>
 </defs>
 <g id="figure_1">
  <g id="patch_1">
   <path d="M 0 279.274375 
L 352.38125 279.274375 
L 352.38125 0 
L 0 0 
z
" style="fill:none;"/>
  </g>
  <g id="axes_1">
   <g id="patch_2">
    <path d="M 43.78125 241.718125 
L 345.18125 241.718125 
L 345.18125 22.318125 
L 43.78125 22.318125 
z
" style="fill:#ffffff;"/>
   </g>
   <g id="matplotlib.axis_1">
    <g id="xtick_1">
     <g id="line2d_1">
      <defs>
       <path d="M 0 0 
L 0 3.5 
" id="m958787ab06" style="stroke:#000000;stroke-width:0.8;"/>
      </defs>
      <g>
       <use style="stroke:#000000;stroke-width:0.8;" x="56.104366" xlink:href="#m958787ab06" y="241.718125"/>
      </g>
     </g>
     <g id="text_1">
      <!-- 0 -->
      <g transform="translate(52.923116 256.316563)scale(0.1 -0.1)">
       <defs>
        <path d="M 31.78125 66.40625 
Q 24.171875 66.40625 20.328125 58.90625 
Q 16.5 51.421875 16.5 36.375 
Q 16.5 21.390625 20.328125 13.890625 
Q 24.171875 6.390625 31.78125 6.390625 
Q 39.453125 6.390625 43.28125 13.890625 
Q 47.125 21.390625 47.125 36.375 
Q 47.125 51.421875 43.28125 58.90625 
Q 39.453125 66.40625 31.78125 66.40625 
z
M 31.78125 74.21875 
Q 44.046875 74.21875 50.515625 64.515625 
Q 56.984375 54.828125 56.984375 36.375 
Q 56.984375 17.96875 50.515625 8.265625 
Q 44.046875 -1.421875 31.78125 -1.421875 
Q 19.53125 -1.421875 13.0625 8.265625 
Q 6.59375 17.96875 6.59375 36.375 
Q 6.59375 54.828125 13.0625 64.515625 
Q 19.53125 74.21875 31.78125 74.21875 
z
" id="DejaVuSans-48"/>
       </defs>
       <use xlink:href="#DejaVuSans-48"/>
      </g>
     </g>
    </g>
    <g id="xtick_2">
     <g id="line2d_2">
      <g>
       <use style="stroke:#000000;stroke-width:0.8;" x="90.526476" xlink:href="#m958787ab06" y="241.718125"/>
      </g>
     </g>
     <g id="text_2">
      <!-- 25 -->
      <g transform="translate(84.163976 256.316563)scale(0.1 -0.1)">
       <defs>
        <path d="M 19.1875 8.296875 
L 53.609375 8.296875 
L 53.609375 0 
L 7.328125 0 
L 7.328125 8.296875 
Q 12.9375 14.109375 22.625 23.890625 
Q 32.328125 33.6875 34.8125 36.53125 
Q 39.546875 41.84375 41.421875 45.53125 
Q 43.3125 49.21875 43.3125 52.78125 
Q 43.3125 58.59375 39.234375 62.25 
Q 35.15625 65.921875 28.609375 65.921875 
Q 23.96875 65.921875 18.8125 64.3125 
Q 13.671875 62.703125 7.8125 59.421875 
L 7.8125 69.390625 
Q 13.765625 71.78125 18.9375 73 
Q 24.125 74.21875 28.421875 74.21875 
Q 39.75 74.21875 46.484375 68.546875 
Q 53.21875 62.890625 53.21875 53.421875 
Q 53.21875 48.921875 51.53125 44.890625 
Q 49.859375 40.875 45.40625 35.40625 
Q 44.1875 33.984375 37.640625 27.21875 
Q 31.109375 20.453125 19.1875 8.296875 
z
" id="DejaVuSans-50"/>
        <path d="M 10.796875 72.90625 
L 49.515625 72.90625 
L 49.515625 64.59375 
L 19.828125 64.59375 
L 19.828125 46.734375 
Q 21.96875 47.46875 24.109375 47.828125 
Q 26.265625 48.1875 28.421875 48.1875 
Q 40.625 48.1875 47.75 41.5 
Q 54.890625 34.8125 54.890625 23.390625 
Q 54.890625 11.625 47.5625 5.09375 
Q 40.234375 -1.421875 26.90625 -1.421875 
Q 22.3125 -1.421875 17.546875 -0.640625 
Q 12.796875 0.140625 7.71875 1.703125 
L 7.71875 11.625 
Q 12.109375 9.234375 16.796875 8.0625 
Q 21.484375 6.890625 26.703125 6.890625 
Q 35.15625 6.890625 40.078125 11.328125 
Q 45.015625 15.765625 45.015625 23.390625 
Q 45.015625 31 40.078125 35.4375 
Q 35.15625 39.890625 26.703125 39.890625 
Q 22.75 39.890625 18.8125 39.015625 
Q 14.890625 38.140625 10.796875 36.28125 
z
" id="DejaVuSans-53"/>
       </defs>
       <use xlink:href="#DejaVuSans-50"/>
       <use x="63.623047" xlink:href="#DejaVuSans-53"/>
      </g>
     </g>
    </g>
    <g id="xtick_3">
     <g id="line2d_3">
      <g>
       <use style="stroke:#000000;stroke-width:0.8;" x="124.948587" xlink:href="#m958787ab06" y="241.718125"/>
      </g>
     </g>
     <g id="text_3">
      <!-- 50 -->
      <g transform="translate(118.586087 256.316563)scale(0.1 -0.1)">
       <use xlink:href="#DejaVuSans-53"/>
       <use x="63.623047" xlink:href="#DejaVuSans-48"/>
      </g>
     </g>
    </g>
    <g id="xtick_4">
     <g id="line2d_4">
      <g>
       <use style="stroke:#000000;stroke-width:0.8;" x="159.370697" xlink:href="#m958787ab06" y="241.718125"/>
      </g>
     </g>
     <g id="text_4">
      <!-- 75 -->
      <g transform="translate(153.008197 256.316563)scale(0.1 -0.1)">
       <defs>
        <path d="M 8.203125 72.90625 
L 55.078125 72.90625 
L 55.078125 68.703125 
L 28.609375 0 
L 18.3125 0 
L 43.21875 64.59375 
L 8.203125 64.59375 
z
" id="DejaVuSans-55"/>
       </defs>
       <use xlink:href="#DejaVuSans-55"/>
       <use x="63.623047" xlink:href="#DejaVuSans-53"/>
      </g>
     </g>
    </g>
    <g id="xtick_5">
     <g id="line2d_5">
      <g>
       <use style="stroke:#000000;stroke-width:0.8;" x="193.792808" xlink:href="#m958787ab06" y="241.718125"/>
      </g>
     </g>
     <g id="text_5">
      <!-- 100 -->
      <g transform="translate(184.249058 256.316563)scale(0.1 -0.1)">
       <defs>
        <path d="M 12.40625 8.296875 
L 28.515625 8.296875 
L 28.515625 63.921875 
L 10.984375 60.40625 
L 10.984375 69.390625 
L 28.421875 72.90625 
L 38.28125 72.90625 
L 38.28125 8.296875 
L 54.390625 8.296875 
L 54.390625 0 
L 12.40625 0 
z
" id="DejaVuSans-49"/>
       </defs>
       <use xlink:href="#DejaVuSans-49"/>
       <use x="63.623047" xlink:href="#DejaVuSans-48"/>
       <use x="127.246094" xlink:href="#DejaVuSans-48"/>
      </g>
     </g>
    </g>
    <g id="xtick_6">
     <g id="line2d_6">
      <g>
       <use style="stroke:#000000;stroke-width:0.8;" x="228.214918" xlink:href="#m958787ab06" y="241.718125"/>
      </g>
     </g>
     <g id="text_6">
      <!-- 125 -->
      <g transform="translate(218.671168 256.316563)scale(0.1 -0.1)">
       <use xlink:href="#DejaVuSans-49"/>
       <use x="63.623047" xlink:href="#DejaVuSans-50"/>
       <use x="127.246094" xlink:href="#DejaVuSans-53"/>
      </g>
     </g>
    </g>
    <g id="xtick_7">
     <g id="line2d_7">
      <g>
       <use style="stroke:#000000;stroke-width:0.8;" x="262.637029" xlink:href="#m958787ab06" y="241.718125"/>
      </g>
     </g>
     <g id="text_7">
      <!-- 150 -->
      <g transform="translate(253.093279 256.316563)scale(0.1 -0.1)">
       <use xlink:href="#DejaVuSans-49"/>
       <use x="63.623047" xlink:href="#DejaVuSans-53"/>
       <use x="127.246094" xlink:href="#DejaVuSans-48"/>
      </g>
     </g>
    </g>
    <g id="xtick_8">
     <g id="line2d_8">
      <g>
       <use style="stroke:#000000;stroke-width:0.8;" x="297.059139" xlink:href="#m958787ab06" y="241.718125"/>
      </g>
     </g>
     <g id="text_8">
      <!-- 175 -->
      <g transform="translate(287.515389 256.316563)scale(0.1 -0.1)">
       <use xlink:href="#DejaVuSans-49"/>
       <use x="63.623047" xlink:href="#DejaVuSans-55"/>
       <use x="127.246094" xlink:href="#DejaVuSans-53"/>
      </g>
     </g>
    </g>
    <g id="xtick_9">
     <g id="line2d_9">
      <g>
       <use style="stroke:#000000;stroke-width:0.8;" x="331.48125" xlink:href="#m958787ab06" y="241.718125"/>
      </g>
     </g>
     <g id="text_9">
      <!-- 200 -->
      <g transform="translate(321.9375 256.316563)scale(0.1 -0.1)">
       <use xlink:href="#DejaVuSans-50"/>
       <use x="63.623047" xlink:href="#DejaVuSans-48"/>
       <use x="127.246094" xlink:href="#DejaVuSans-48"/>
      </g>
     </g>
    </g>
    <g id="text_10">
     <!-- Epoch -->
     <g transform="translate(179.170312 269.994688)scale(0.1 -0.1)">
      <defs>
       <path d="M 9.8125 72.90625 
L 55.90625 72.90625 
L 55.90625 64.59375 
L 19.671875 64.59375 
L 19.671875 43.015625 
L 54.390625 43.015625 
L 54.390625 34.71875 
L 19.671875 34.71875 
L 19.671875 8.296875 
L 56.78125 8.296875 
L 56.78125 0 
L 9.8125 0 
z
" id="DejaVuSans-69"/>
       <path d="M 18.109375 8.203125 
L 18.109375 -20.796875 
L 9.078125 -20.796875 
L 9.078125 54.6875 
L 18.109375 54.6875 
L 18.109375 46.390625 
Q 20.953125 51.265625 25.265625 53.625 
Q 29.59375 56 35.59375 56 
Q 45.5625 56 51.78125 48.09375 
Q 58.015625 40.1875 58.015625 27.296875 
Q 58.015625 14.40625 51.78125 6.484375 
Q 45.5625 -1.421875 35.59375 -1.421875 
Q 29.59375 -1.421875 25.265625 0.953125 
Q 20.953125 3.328125 18.109375 8.203125 
z
M 48.6875 27.296875 
Q 48.6875 37.203125 44.609375 42.84375 
Q 40.53125 48.484375 33.40625 48.484375 
Q 26.265625 48.484375 22.1875 42.84375 
Q 18.109375 37.203125 18.109375 27.296875 
Q 18.109375 17.390625 22.1875 11.75 
Q 26.265625 6.109375 33.40625 6.109375 
Q 40.53125 6.109375 44.609375 11.75 
Q 48.6875 17.390625 48.6875 27.296875 
z
" id="DejaVuSans-112"/>
       <path d="M 30.609375 48.390625 
Q 23.390625 48.390625 19.1875 42.75 
Q 14.984375 37.109375 14.984375 27.296875 
Q 14.984375 17.484375 19.15625 11.84375 
Q 23.34375 6.203125 30.609375 6.203125 
Q 37.796875 6.203125 41.984375 11.859375 
Q 46.1875 17.53125 46.1875 27.296875 
Q 46.1875 37.015625 41.984375 42.703125 
Q 37.796875 48.390625 30.609375 48.390625 
z
M 30.609375 56 
Q 42.328125 56 49.015625 48.375 
Q 55.71875 40.765625 55.71875 27.296875 
Q 55.71875 13.875 49.015625 6.21875 
Q 42.328125 -1.421875 30.609375 -1.421875 
Q 18.84375 -1.421875 12.171875 6.21875 
Q 5.515625 13.875 5.515625 27.296875 
Q 5.515625 40.765625 12.171875 48.375 
Q 18.84375 56 30.609375 56 
z
" id="DejaVuSans-111"/>
       <path d="M 48.78125 52.59375 
L 48.78125 44.1875 
Q 44.96875 46.296875 41.140625 47.34375 
Q 37.3125 48.390625 33.40625 48.390625 
Q 24.65625 48.390625 19.8125 42.84375 
Q 14.984375 37.3125 14.984375 27.296875 
Q 14.984375 17.28125 19.8125 11.734375 
Q 24.65625 6.203125 33.40625 6.203125 
Q 37.3125 6.203125 41.140625 7.25 
Q 44.96875 8.296875 48.78125 10.40625 
L 48.78125 2.09375 
Q 45.015625 0.34375 40.984375 -0.53125 
Q 36.96875 -1.421875 32.421875 -1.421875 
Q 20.0625 -1.421875 12.78125 6.34375 
Q 5.515625 14.109375 5.515625 27.296875 
Q 5.515625 40.671875 12.859375 48.328125 
Q 20.21875 56 33.015625 56 
Q 37.15625 56 41.109375 55.140625 
Q 45.0625 54.296875 48.78125 52.59375 
z
" id="DejaVuSans-99"/>
       <path d="M 54.890625 33.015625 
L 54.890625 0 
L 45.90625 0 
L 45.90625 32.71875 
Q 45.90625 40.484375 42.875 44.328125 
Q 39.84375 48.1875 33.796875 48.1875 
Q 26.515625 48.1875 22.3125 43.546875 
Q 18.109375 38.921875 18.109375 30.90625 
L 18.109375 0 
L 9.078125 0 
L 9.078125 75.984375 
L 18.109375 75.984375 
L 18.109375 46.1875 
Q 21.34375 51.125 25.703125 53.5625 
Q 30.078125 56 35.796875 56 
Q 45.21875 56 50.046875 50.171875 
Q 54.890625 44.34375 54.890625 33.015625 
z
" id="DejaVuSans-104"/>
      </defs>
      <use xlink:href="#DejaVuSans-69"/>
      <use x="63.183594" xlink:href="#DejaVuSans-112"/>
      <use x="126.660156" xlink:href="#DejaVuSans-111"/>
      <use x="187.841797" xlink:href="#DejaVuSans-99"/>
      <use x="242.822266" xlink:href="#DejaVuSans-104"/>
     </g>
    </g>
   </g>
   <g id="matplotlib.axis_2">
    <g id="ytick_1">
     <g id="line2d_10">
      <path clip-path="url(#p12690c4167)" d="M 43.78125 224.859606 
L 345.18125 224.859606 
" style="fill:none;stroke:#b0b0b0;stroke-dasharray:2.96,1.28;stroke-dashoffset:0;stroke-width:0.8;"/>
     </g>
     <g id="line2d_11">
      <defs>
       <path d="M 0 0 
L -3.5 0 
" id="m10fb1b5a76" style="stroke:#000000;stroke-width:0.8;"/>
      </defs>
      <g>
       <use style="stroke:#000000;stroke-width:0.8;" x="43.78125" xlink:href="#m10fb1b5a76" y="224.859606"/>
      </g>
     </g>
     <g id="text_11">
      <!-- 0.1 -->
      <g transform="translate(20.878125 228.658825)scale(0.1 -0.1)">
       <defs>
        <path d="M 10.6875 12.40625 
L 21 12.40625 
L 21 0 
L 10.6875 0 
z
" id="DejaVuSans-46"/>
       </defs>
       <use xlink:href="#DejaVuSans-48"/>
       <use x="63.623047" xlink:href="#DejaVuSans-46"/>
       <use x="95.410156" xlink:href="#DejaVuSans-49"/>
      </g>
     </g>
    </g>
    <g id="ytick_2">
     <g id="line2d_12">
      <path clip-path="url(#p12690c4167)" d="M 43.78125 185.956827 
L 345.18125 185.956827 
" style="fill:none;stroke:#b0b0b0;stroke-dasharray:2.96,1.28;stroke-dashoffset:0;stroke-width:0.8;"/>
     </g>
     <g id="line2d_13">
      <g>
       <use style="stroke:#000000;stroke-width:0.8;" x="43.78125" xlink:href="#m10fb1b5a76" y="185.956827"/>
      </g>
     </g>
     <g id="text_12">
      <!-- 0.2 -->
      <g transform="translate(20.878125 189.756046)scale(0.1 -0.1)">
       <use xlink:href="#DejaVuSans-48"/>
       <use x="63.623047" xlink:href="#DejaVuSans-46"/>
       <use x="95.410156" xlink:href="#DejaVuSans-50"/>
      </g>
     </g>
    </g>
    <g id="ytick_3">
     <g id="line2d_14">
      <path clip-path="url(#p12690c4167)" d="M 43.78125 147.054049 
L 345.18125 147.054049 
" style="fill:none;stroke:#b0b0b0;stroke-dasharray:2.96,1.28;stroke-dashoffset:0;stroke-width:0.8;"/>
     </g>
     <g id="line2d_15">
      <g>
       <use style="stroke:#000000;stroke-width:0.8;" x="43.78125" xlink:href="#m10fb1b5a76" y="147.054049"/>
      </g>
     </g>
     <g id="text_13">
      <!-- 0.3 -->
      <g transform="translate(20.878125 150.853268)scale(0.1 -0.1)">
       <defs>
        <path d="M 40.578125 39.3125 
Q 47.65625 37.796875 51.625 33 
Q 55.609375 28.21875 55.609375 21.1875 
Q 55.609375 10.40625 48.1875 4.484375 
Q 40.765625 -1.421875 27.09375 -1.421875 
Q 22.515625 -1.421875 17.65625 -0.515625 
Q 12.796875 0.390625 7.625 2.203125 
L 7.625 11.71875 
Q 11.71875 9.328125 16.59375 8.109375 
Q 21.484375 6.890625 26.8125 6.890625 
Q 36.078125 6.890625 40.9375 10.546875 
Q 45.796875 14.203125 45.796875 21.1875 
Q 45.796875 27.640625 41.28125 31.265625 
Q 36.765625 34.90625 28.71875 34.90625 
L 20.21875 34.90625 
L 20.21875 43.015625 
L 29.109375 43.015625 
Q 36.375 43.015625 40.234375 45.921875 
Q 44.09375 48.828125 44.09375 54.296875 
Q 44.09375 59.90625 40.109375 62.90625 
Q 36.140625 65.921875 28.71875 65.921875 
Q 24.65625 65.921875 20.015625 65.03125 
Q 15.375 64.15625 9.8125 62.3125 
L 9.8125 71.09375 
Q 15.4375 72.65625 20.34375 73.4375 
Q 25.25 74.21875 29.59375 74.21875 
Q 40.828125 74.21875 47.359375 69.109375 
Q 53.90625 64.015625 53.90625 55.328125 
Q 53.90625 49.265625 50.4375 45.09375 
Q 46.96875 40.921875 40.578125 39.3125 
z
" id="DejaVuSans-51"/>
       </defs>
       <use xlink:href="#DejaVuSans-48"/>
       <use x="63.623047" xlink:href="#DejaVuSans-46"/>
       <use x="95.410156" xlink:href="#DejaVuSans-51"/>
      </g>
     </g>
    </g>
    <g id="ytick_4">
     <g id="line2d_16">
      <path clip-path="url(#p12690c4167)" d="M 43.78125 108.15127 
L 345.18125 108.15127 
" style="fill:none;stroke:#b0b0b0;stroke-dasharray:2.96,1.28;stroke-dashoffset:0;stroke-width:0.8;"/>
     </g>
     <g id="line2d_17">
      <g>
       <use style="stroke:#000000;stroke-width:0.8;" x="43.78125" xlink:href="#m10fb1b5a76" y="108.15127"/>
      </g>
     </g>
     <g id="text_14">
      <!-- 0.4 -->
      <g transform="translate(20.878125 111.950489)scale(0.1 -0.1)">
       <defs>
        <path d="M 37.796875 64.3125 
L 12.890625 25.390625 
L 37.796875 25.390625 
z
M 35.203125 72.90625 
L 47.609375 72.90625 
L 47.609375 25.390625 
L 58.015625 25.390625 
L 58.015625 17.1875 
L 47.609375 17.1875 
L 47.609375 0 
L 37.796875 0 
L 37.796875 17.1875 
L 4.890625 17.1875 
L 4.890625 26.703125 
z
" id="DejaVuSans-52"/>
       </defs>
       <use xlink:href="#DejaVuSans-48"/>
       <use x="63.623047" xlink:href="#DejaVuSans-46"/>
       <use x="95.410156" xlink:href="#DejaVuSans-52"/>
      </g>
     </g>
    </g>
    <g id="ytick_5">
     <g id="line2d_18">
      <path clip-path="url(#p12690c4167)" d="M 43.78125 69.248492 
L 345.18125 69.248492 
" style="fill:none;stroke:#b0b0b0;stroke-dasharray:2.96,1.28;stroke-dashoffset:0;stroke-width:0.8;"/>
     </g>
     <g id="line2d_19">
      <g>
       <use style="stroke:#000000;stroke-width:0.8;" x="43.78125" xlink:href="#m10fb1b5a76" y="69.248492"/>
      </g>
     </g>
     <g id="text_15">
      <!-- 0.5 -->
      <g transform="translate(20.878125 73.047711)scale(0.1 -0.1)">
       <use xlink:href="#DejaVuSans-48"/>
       <use x="63.623047" xlink:href="#DejaVuSans-46"/>
       <use x="95.410156" xlink:href="#DejaVuSans-53"/>
      </g>
     </g>
    </g>
    <g id="ytick_6">
     <g id="line2d_20">
      <path clip-path="url(#p12690c4167)" d="M 43.78125 30.345713 
L 345.18125 30.345713 
" style="fill:none;stroke:#b0b0b0;stroke-dasharray:2.96,1.28;stroke-dashoffset:0;stroke-width:0.8;"/>
     </g>
     <g id="line2d_21">
      <g>
       <use style="stroke:#000000;stroke-width:0.8;" x="43.78125" xlink:href="#m10fb1b5a76" y="30.345713"/>
      </g>
     </g>
     <g id="text_16">
      <!-- 0.6 -->
      <g transform="translate(20.878125 34.144932)scale(0.1 -0.1)">
       <defs>
        <path d="M 33.015625 40.375 
Q 26.375 40.375 22.484375 35.828125 
Q 18.609375 31.296875 18.609375 23.390625 
Q 18.609375 15.53125 22.484375 10.953125 
Q 26.375 6.390625 33.015625 6.390625 
Q 39.65625 6.390625 43.53125 10.953125 
Q 47.40625 15.53125 47.40625 23.390625 
Q 47.40625 31.296875 43.53125 35.828125 
Q 39.65625 40.375 33.015625 40.375 
z
M 52.59375 71.296875 
L 52.59375 62.3125 
Q 48.875 64.0625 45.09375 64.984375 
Q 41.3125 65.921875 37.59375 65.921875 
Q 27.828125 65.921875 22.671875 59.328125 
Q 17.53125 52.734375 16.796875 39.40625 
Q 19.671875 43.65625 24.015625 45.921875 
Q 28.375 48.1875 33.59375 48.1875 
Q 44.578125 48.1875 50.953125 41.515625 
Q 57.328125 34.859375 57.328125 23.390625 
Q 57.328125 12.15625 50.6875 5.359375 
Q 44.046875 -1.421875 33.015625 -1.421875 
Q 20.359375 -1.421875 13.671875 8.265625 
Q 6.984375 17.96875 6.984375 36.375 
Q 6.984375 53.65625 15.1875 63.9375 
Q 23.390625 74.21875 37.203125 74.21875 
Q 40.921875 74.21875 44.703125 73.484375 
Q 48.484375 72.75 52.59375 71.296875 
z
" id="DejaVuSans-54"/>
       </defs>
       <use xlink:href="#DejaVuSans-48"/>
       <use x="63.623047" xlink:href="#DejaVuSans-46"/>
       <use x="95.410156" xlink:href="#DejaVuSans-54"/>
      </g>
     </g>
    </g>
    <g id="text_17">
     <!-- Error Rate -->
     <g transform="translate(14.798438 157.254844)rotate(-90)scale(0.1 -0.1)">
      <defs>
       <path d="M 41.109375 46.296875 
Q 39.59375 47.171875 37.8125 47.578125 
Q 36.03125 48 33.890625 48 
Q 26.265625 48 22.1875 43.046875 
Q 18.109375 38.09375 18.109375 28.8125 
L 18.109375 0 
L 9.078125 0 
L 9.078125 54.6875 
L 18.109375 54.6875 
L 18.109375 46.1875 
Q 20.953125 51.171875 25.484375 53.578125 
Q 30.03125 56 36.53125 56 
Q 37.453125 56 38.578125 55.875 
Q 39.703125 55.765625 41.0625 55.515625 
z
" id="DejaVuSans-114"/>
       <path id="DejaVuSans-32"/>
       <path d="M 44.390625 34.1875 
Q 47.5625 33.109375 50.5625 29.59375 
Q 53.5625 26.078125 56.59375 19.921875 
L 66.609375 0 
L 56 0 
L 46.6875 18.703125 
Q 43.0625 26.03125 39.671875 28.421875 
Q 36.28125 30.8125 30.421875 30.8125 
L 19.671875 30.8125 
L 19.671875 0 
L 9.8125 0 
L 9.8125 72.90625 
L 32.078125 72.90625 
Q 44.578125 72.90625 50.734375 67.671875 
Q 56.890625 62.453125 56.890625 51.90625 
Q 56.890625 45.015625 53.6875 40.46875 
Q 50.484375 35.9375 44.390625 34.1875 
z
M 19.671875 64.796875 
L 19.671875 38.921875 
L 32.078125 38.921875 
Q 39.203125 38.921875 42.84375 42.21875 
Q 46.484375 45.515625 46.484375 51.90625 
Q 46.484375 58.296875 42.84375 61.546875 
Q 39.203125 64.796875 32.078125 64.796875 
z
" id="DejaVuSans-82"/>
       <path d="M 34.28125 27.484375 
Q 23.390625 27.484375 19.1875 25 
Q 14.984375 22.515625 14.984375 16.5 
Q 14.984375 11.71875 18.140625 8.90625 
Q 21.296875 6.109375 26.703125 6.109375 
Q 34.1875 6.109375 38.703125 11.40625 
Q 43.21875 16.703125 43.21875 25.484375 
L 43.21875 27.484375 
z
M 52.203125 31.203125 
L 52.203125 0 
L 43.21875 0 
L 43.21875 8.296875 
Q 40.140625 3.328125 35.546875 0.953125 
Q 30.953125 -1.421875 24.3125 -1.421875 
Q 15.921875 -1.421875 10.953125 3.296875 
Q 6 8.015625 6 15.921875 
Q 6 25.140625 12.171875 29.828125 
Q 18.359375 34.515625 30.609375 34.515625 
L 43.21875 34.515625 
L 43.21875 35.40625 
Q 43.21875 41.609375 39.140625 45 
Q 35.0625 48.390625 27.6875 48.390625 
Q 23 48.390625 18.546875 47.265625 
Q 14.109375 46.140625 10.015625 43.890625 
L 10.015625 52.203125 
Q 14.9375 54.109375 19.578125 55.046875 
Q 24.21875 56 28.609375 56 
Q 40.484375 56 46.34375 49.84375 
Q 52.203125 43.703125 52.203125 31.203125 
z
" id="DejaVuSans-97"/>
       <path d="M 18.3125 70.21875 
L 18.3125 54.6875 
L 36.8125 54.6875 
L 36.8125 47.703125 
L 18.3125 47.703125 
L 18.3125 18.015625 
Q 18.3125 11.328125 20.140625 9.421875 
Q 21.96875 7.515625 27.59375 7.515625 
L 36.8125 7.515625 
L 36.8125 0 
L 27.59375 0 
Q 17.1875 0 13.234375 3.875 
Q 9.28125 7.765625 9.28125 18.015625 
L 9.28125 47.703125 
L 2.6875 47.703125 
L 2.6875 54.6875 
L 9.28125 54.6875 
L 9.28125 70.21875 
z
" id="DejaVuSans-116"/>
       <path d="M 56.203125 29.59375 
L 56.203125 25.203125 
L 14.890625 25.203125 
Q 15.484375 15.921875 20.484375 11.0625 
Q 25.484375 6.203125 34.421875 6.203125 
Q 39.59375 6.203125 44.453125 7.46875 
Q 49.3125 8.734375 54.109375 11.28125 
L 54.109375 2.78125 
Q 49.265625 0.734375 44.1875 -0.34375 
Q 39.109375 -1.421875 33.890625 -1.421875 
Q 20.796875 -1.421875 13.15625 6.1875 
Q 5.515625 13.8125 5.515625 26.8125 
Q 5.515625 40.234375 12.765625 48.109375 
Q 20.015625 56 32.328125 56 
Q 43.359375 56 49.78125 48.890625 
Q 56.203125 41.796875 56.203125 29.59375 
z
M 47.21875 32.234375 
Q 47.125 39.59375 43.09375 43.984375 
Q 39.0625 48.390625 32.421875 48.390625 
Q 24.90625 48.390625 20.390625 44.140625 
Q 15.875 39.890625 15.1875 32.171875 
z
" id="DejaVuSans-101"/>
      </defs>
      <use xlink:href="#DejaVuSans-69"/>
      <use x="63.183594" xlink:href="#DejaVuSans-114"/>
      <use x="102.546875" xlink:href="#DejaVuSans-114"/>
      <use x="141.410156" xlink:href="#DejaVuSans-111"/>
      <use x="202.591797" xlink:href="#DejaVuSans-114"/>
      <use x="243.705078" xlink:href="#DejaVuSans-32"/>
      <use x="275.492188" xlink:href="#DejaVuSans-82"/>
      <use x="342.724609" xlink:href="#DejaVuSans-97"/>
      <use x="404.003906" xlink:href="#DejaVuSans-116"/>
      <use x="443.212891" xlink:href="#DejaVuSans-101"/>
     </g>
    </g>
   </g>
   <g id="line2d_22">
    <path clip-path="url(#p12690c4167)" d="M 57.48125 63.218561 
L 58.858134 119.938812 
L 60.235019 134.177229 
L 61.611903 155.923882 
L 62.988788 156.118396 
L 64.365672 178.526397 
L 65.742557 178.215174 
L 67.119441 180.860563 
L 68.496325 190.741869 
L 69.87321 186.9683 
L 71.250094 178.682008 
L 72.626979 197.044119 
L 74.003863 185.801216 
L 75.380747 196.382772 
L 76.757632 177.553827 
L 78.134516 197.705467 
L 79.511401 195.410203 
L 80.888285 195.215689 
L 82.26517 193.387258 
L 83.642054 193.114939 
L 85.018938 204.785772 
L 86.395823 201.362328 
L 87.772707 179.615675 
L 89.149592 196.032647 
L 90.526476 198.211203 
L 91.903361 190.819675 
L 93.280245 202.412703 
L 94.657129 202.918439 
L 96.034014 198.60023 
L 97.410898 206.769814 
L 98.787783 202.412703 
L 100.164667 200.856592 
L 101.541552 202.529411 
L 102.918436 200.27305 
L 104.29532 201.323425 
L 105.672205 201.556842 
L 107.049089 204.902481 
L 108.425974 206.030661 
L 109.802858 202.568314 
L 111.179742 211.321439 
L 112.556627 198.444619 
L 113.933511 209.298495 
L 115.310396 198.250105 
L 116.68728 216.884536 
L 118.064165 206.419689 
L 119.441049 210.932411 
L 120.817933 209.298495 
L 122.194818 213.538897 
L 123.571702 211.554856 
L 124.948587 207.781286 
L 126.325471 207.081036 
L 127.702356 205.913953 
L 129.07924 211.593758 
L 130.456124 197.822175 
L 131.833009 201.67355 
L 133.209893 209.570814 
L 134.586778 207.042133 
L 135.963662 212.332911 
L 137.340546 210.037647 
L 138.717431 206.808717 
L 140.094315 215.017203 
L 141.4712 214.161342 
L 142.848084 214.316953 
L 144.224969 193.076036 
L 145.601853 208.987272 
L 146.978737 205.213703 
L 148.355622 212.332911 
L 149.732506 208.792758 
L 151.109391 216.223189 
L 152.486275 210.07655 
L 153.86316 207.197744 
L 155.240044 207.625675 
L 156.616928 202.451606 
L 157.993813 215.600745 
L 159.370697 208.559342 
L 160.747582 218.907481 
L 162.124466 214.900495 
L 163.501351 218.868578 
L 164.878235 215.445134 
L 166.255119 207.158842 
L 167.632004 213.616703 
L 169.008888 213.499995 
L 171.762657 203.307467 
L 173.139541 208.987272 
L 174.516426 220.502495 
L 175.89331 209.843133 
L 177.270195 219.101995 
L 178.647079 215.756356 
L 180.023964 219.685536 
L 181.400848 218.246134 
L 182.777732 211.554856 
L 184.154617 213.110967 
L 185.531501 212.838647 
L 186.908386 220.113467 
L 188.28527 219.996759 
L 189.662155 220.541398 
L 191.039039 221.513967 
L 192.415923 219.841148 
L 193.792808 216.184286 
L 195.169692 217.001245 
L 196.546577 213.072064 
L 197.923461 217.740397 
L 199.300345 219.335411 
L 200.67723 217.312467 
L 202.054114 219.374314 
L 203.430999 218.168328 
L 204.807883 218.401745 
L 206.184768 219.063092 
L 207.561652 213.733411 
L 208.938536 218.401745 
L 210.315421 218.829675 
L 211.692305 220.697009 
L 213.06919 206.769814 
L 214.446074 219.646634 
L 215.822959 222.175314 
L 217.199843 215.445134 
L 218.576727 220.813717 
L 219.953612 220.15237 
L 221.330496 218.75187 
L 222.707381 220.813717 
L 224.084265 220.113467 
L 225.461149 223.070078 
L 226.838034 223.264592 
L 228.214918 225.75437 
L 229.591803 223.264592 
L 230.968687 224.198259 
L 232.345572 222.369828 
L 233.722456 221.319453 
L 235.09934 223.303495 
L 236.476225 223.65362 
L 237.853109 221.436161 
L 239.229994 219.996759 
L 240.606878 221.864092 
L 241.983763 222.642148 
L 243.360647 224.898509 
L 244.737531 226.299009 
L 247.4913 224.898509 
L 248.868185 224.7818 
L 250.245069 227.466092 
L 251.621954 224.314967 
L 252.998838 227.504995 
L 254.375722 226.765842 
L 255.752607 226.299009 
L 257.129491 226.921453 
L 258.506376 225.75437 
L 259.88326 226.299009 
L 261.260144 227.388287 
L 262.637029 226.45462 
L 264.013913 228.049634 
L 265.390798 228.477564 
L 266.767682 228.55537 
L 268.144567 228.866592 
L 269.521451 228.321953 
L 270.898335 227.621703 
L 272.27522 229.138912 
L 273.652104 229.061106 
L 275.028989 229.800259 
L 276.405873 229.839162 
L 277.782758 229.100009 
L 279.159642 228.749884 
L 280.536526 230.267092 
L 281.913411 230.305995 
L 283.290295 230.617217 
L 284.66718 229.761356 
L 286.044064 230.267092 
L 287.420948 229.333425 
L 288.797833 230.3838 
L 290.174717 230.422703 
L 291.551602 230.733925 
L 292.928486 230.811731 
L 294.305371 231.045148 
L 295.682255 230.850634 
L 297.059139 231.122953 
L 298.436024 230.733925 
L 299.812908 231.045148 
L 301.189793 230.967342 
L 302.566677 231.395273 
L 303.943562 230.617217 
L 305.320446 231.511981 
L 306.69733 230.772828 
L 308.074215 231.239662 
L 310.827984 230.617217 
L 312.204868 231.589787 
L 313.581753 231.122953 
L 314.958637 231.200759 
L 316.335521 231.473078 
L 317.712406 230.928439 
L 319.08929 231.200759 
L 320.466175 231.122953 
L 321.843059 231.200759 
L 323.219943 231.473078 
L 325.973712 231.395273 
L 327.350597 231.35637 
L 328.727481 231.745398 
L 330.104366 231.200759 
L 331.48125 231.278564 
L 331.48125 231.278564 
" style="fill:none;stroke:#1f77b4;stroke-linecap:square;stroke-width:1.5;"/>
   </g>
   <g id="line2d_23">
    <path clip-path="url(#p12690c4167)" d="M 57.48125 48.163186 
L 58.858134 88.155242 
L 60.235019 78.507353 
L 61.611903 127.913882 
L 62.988788 140.946313 
L 64.365672 143.864021 
L 65.742557 153.589716 
L 67.119441 125.579715 
L 68.496325 153.317396 
L 69.87321 127.680465 
L 71.250094 167.361299 
L 72.626979 154.251063 
L 74.003863 164.326883 
L 75.380747 169.967785 
L 76.757632 167.166785 
L 78.134516 162.226133 
L 79.511401 164.754813 
L 80.888285 187.279522 
L 82.26517 113.32534 
L 83.642054 183.89498 
L 85.018938 176.036619 
L 86.395823 148.337841 
L 87.772707 174.09148 
L 89.149592 188.446605 
L 90.526476 141.646563 
L 91.903361 182.844605 
L 93.280245 156.624132 
L 94.657129 178.565299 
L 96.034014 174.908438 
L 97.410898 196.032647 
L 98.787783 166.738855 
L 100.164667 165.999702 
L 101.541552 161.331369 
L 102.918436 182.49448 
L 104.29532 181.055077 
L 105.672205 156.429619 
L 107.049089 179.071036 
L 108.425974 161.48698 
L 109.802858 165.649577 
L 111.179742 169.345341 
L 112.556627 183.544855 
L 113.933511 190.702966 
L 115.310396 178.954327 
L 116.68728 168.178258 
L 118.064165 178.098466 
L 119.441049 189.847105 
L 120.817933 184.206202 
L 123.571702 169.539855 
L 124.948587 191.792244 
L 126.325471 181.016175 
L 127.702356 179.849091 
L 129.07924 181.09398 
L 130.456124 184.128397 
L 131.833009 185.412189 
L 133.209893 191.1698 
L 134.586778 183.078022 
L 135.963662 189.419175 
L 137.340546 193.9708 
L 138.717431 147.170757 
L 140.094315 188.563314 
L 141.4712 178.837619 
L 142.848084 176.853577 
L 144.224969 192.99823 
L 145.601853 193.076036 
L 146.978737 175.881008 
L 148.355622 192.414689 
L 149.732506 167.750327 
L 151.109391 193.153841 
L 152.486275 192.025661 
L 153.86316 183.700466 
L 155.240044 186.190244 
L 156.616928 198.911453 
L 157.993813 179.926897 
L 159.370697 183.89498 
L 160.747582 188.913439 
L 162.124466 198.133397 
L 163.501351 202.334897 
L 164.878235 193.892994 
L 166.255119 182.611188 
L 167.632004 198.094494 
L 169.008888 198.87255 
L 170.385773 202.957342 
L 171.762657 186.306952 
L 173.139541 171.407188 
L 174.516426 201.362328 
L 175.89331 204.396744 
L 177.270195 189.730397 
L 178.647079 206.341883 
L 180.023964 196.382772 
L 181.400848 202.257092 
L 182.777732 183.428147 
L 184.154617 197.510953 
L 185.531501 207.353356 
L 188.28527 193.153841 
L 189.662155 206.730911 
L 191.039039 207.820189 
L 192.415923 207.470064 
L 193.792808 212.488522 
L 195.169692 206.692008 
L 196.546577 208.870564 
L 197.923461 207.158842 
L 199.300345 216.339897 
L 200.67723 215.561842 
L 202.054114 219.101995 
L 203.430999 215.056106 
L 204.807883 215.989772 
L 206.184768 211.360342 
L 207.561652 217.662592 
L 208.938536 216.534411 
L 210.315421 216.495509 
L 211.692305 219.568828 
L 213.06919 219.529925 
L 214.446074 217.896009 
L 215.822959 220.307981 
L 217.199843 221.669578 
L 218.576727 222.525439 
L 219.953612 219.957856 
L 221.330496 221.358356 
L 222.707381 220.074564 
L 224.084265 222.914467 
L 225.461149 222.447634 
L 226.838034 223.809231 
L 228.214918 222.447634 
L 229.591803 222.797759 
L 230.968687 224.159356 
L 232.345572 223.108981 
L 235.09934 224.276064 
L 236.476225 223.575814 
L 237.853109 222.214217 
L 239.229994 225.209731 
L 240.606878 223.498009 
L 241.983763 223.3813 
L 243.360647 225.559856 
L 244.737531 222.175314 
L 246.114416 225.287536 
L 248.868185 224.976314 
L 250.245069 223.809231 
L 251.621954 225.287536 
L 252.998838 224.703995 
L 254.375722 225.559856 
L 255.752607 225.871078 
L 257.129491 225.871078 
L 258.506376 225.326439 
L 259.88326 225.871078 
L 261.260144 225.559856 
L 262.637029 225.559856 
L 264.013913 226.1823 
L 265.390798 225.404245 
L 266.767682 225.248634 
L 268.144567 225.75437 
L 269.521451 225.015217 
L 270.898335 225.637662 
L 272.27522 225.209731 
L 273.652104 226.532425 
L 275.028989 226.143398 
L 276.405873 225.909981 
L 277.782758 226.337912 
L 279.159642 225.987787 
L 280.536526 226.221203 
L 281.913411 227.5828 
L 283.290295 226.1823 
L 284.66718 227.038162 
L 286.044064 225.948884 
L 287.420948 226.065592 
L 288.797833 226.843648 
L 291.551602 226.999259 
L 292.928486 226.804745 
L 297.059139 227.115967 
L 298.436024 226.726939 
L 301.189793 227.15487 
L 303.943562 226.843648 
L 305.320446 227.466092 
L 309.451099 226.532425 
L 310.827984 227.193773 
L 312.204868 226.493523 
L 313.581753 227.15487 
L 314.958637 227.504995 
L 316.335521 226.843648 
L 317.712406 227.543898 
L 319.08929 226.843648 
L 320.466175 227.193773 
L 321.843059 227.310481 
L 323.219943 227.15487 
L 325.973712 227.310481 
L 327.350597 227.077064 
L 330.104366 227.193773 
L 331.48125 227.543898 
L 331.48125 227.543898 
" style="fill:none;stroke:#ff7f0e;stroke-linecap:square;stroke-width:1.5;"/>
   </g>
   <g id="line2d_24">
    <path clip-path="url(#p12690c4167)" d="M 57.48125 32.524269 
L 58.858134 69.520811 
L 60.235019 90.022576 
L 61.611903 132.582215 
L 62.988788 140.90741 
L 64.365672 147.520882 
L 65.742557 127.836076 
L 67.119441 137.795188 
L 68.496325 172.69098 
L 69.87321 92.629062 
L 71.250094 167.050077 
L 72.626979 148.493452 
L 74.003863 141.918882 
L 75.380747 147.092952 
L 76.757632 172.807688 
L 78.134516 170.084494 
L 79.511401 179.498966 
L 80.888285 174.636119 
L 82.26517 174.247091 
L 83.642054 134.099424 
L 85.018938 154.251063 
L 86.395823 186.657077 
L 87.772707 187.66855 
L 89.149592 180.977272 
L 90.526476 157.402188 
L 91.903361 182.961313 
L 93.280245 176.347841 
L 94.657129 183.505952 
L 96.034014 186.345855 
L 98.787783 158.452563 
L 100.164667 181.833133 
L 101.541552 180.549341 
L 102.918436 191.908953 
L 104.29532 187.279522 
L 105.672205 181.677522 
L 107.049089 186.423661 
L 108.425974 181.327397 
L 109.802858 177.514924 
L 111.179742 182.338869 
L 112.556627 195.877036 
L 113.933511 192.99823 
L 115.310396 175.219661 
L 116.68728 181.483008 
L 118.064165 192.687008 
L 119.441049 197.433147 
L 120.817933 196.304966 
L 122.194818 184.011688 
L 123.571702 188.09648 
L 124.948587 183.505952 
L 126.325471 186.034633 
L 127.702356 191.091994 
L 129.07924 177.048091 
L 130.456124 177.359313 
L 131.833009 185.256577 
L 133.209893 181.016175 
L 134.586778 201.556842 
L 135.963662 187.162814 
L 137.340546 181.327397 
L 138.717431 187.785258 
L 140.094315 196.266064 
L 141.4712 185.645605 
L 142.848084 187.474036 
L 144.224969 198.794744 
L 145.601853 199.222675 
L 146.978737 201.440133 
L 148.355622 193.153841 
L 149.732506 195.488008 
L 151.109391 186.540369 
L 152.486275 204.318939 
L 153.86316 203.501981 
L 155.240044 202.490508 
L 156.616928 200.9733 
L 157.993813 194.865564 
L 159.370697 194.009703 
L 160.747582 191.792244 
L 162.124466 205.369314 
L 163.501351 195.643619 
L 164.878235 204.980286 
L 166.255119 196.732897 
L 167.632004 203.540883 
L 169.008888 200.778786 
L 170.385773 209.882036 
L 171.762657 207.197744 
L 173.139541 204.863578 
L 174.516426 203.035147 
L 175.89331 204.941383 
L 177.270195 198.483522 
L 178.647079 201.517939 
L 180.023964 202.918439 
L 181.400848 207.081036 
L 182.777732 206.147369 
L 184.154617 208.598245 
L 185.531501 209.882036 
L 186.908386 201.595744 
L 188.28527 211.360342 
L 189.662155 206.147369 
L 191.039039 210.815703 
L 192.415923 196.7718 
L 193.792808 208.287022 
L 195.169692 217.117953 
L 196.546577 212.44962 
L 197.923461 218.674064 
L 199.300345 215.600745 
L 200.67723 209.804231 
L 202.054114 205.913953 
L 203.430999 217.273564 
L 204.807883 216.184286 
L 206.184768 216.3788 
L 207.561652 219.685536 
L 208.938536 220.307981 
L 210.315421 217.117953 
L 211.692305 218.129425 
L 213.06919 221.397259 
L 214.446074 219.413217 
L 215.822959 220.5803 
L 217.199843 220.891523 
L 218.576727 222.875564 
L 219.953612 224.35387 
L 221.330496 225.015217 
L 222.707381 223.225689 
L 224.084265 223.420203 
L 225.461149 226.376814 
L 226.838034 223.420203 
L 228.214918 224.859606 
L 229.591803 222.058606 
L 230.968687 226.376814 
L 232.345572 224.120453 
L 233.722456 223.342398 
L 235.09934 224.003745 
L 236.476225 225.793273 
L 237.853109 225.209731 
L 239.229994 227.466092 
L 240.606878 228.477564 
L 241.983763 227.310481 
L 243.360647 226.493523 
L 246.114416 229.372328 
L 247.4913 227.85512 
L 248.868185 226.921453 
L 250.245069 226.299009 
L 251.621954 228.205245 
L 252.998838 228.710981 
L 254.375722 228.672078 
L 255.752607 228.9833 
L 257.129491 227.777314 
L 259.88326 227.621703 
L 261.260144 229.25562 
L 262.637029 229.022203 
L 264.013913 228.244148 
L 265.390798 230.344898 
L 269.521451 229.022203 
L 270.898335 229.566842 
L 272.27522 229.450134 
L 273.652104 229.916967 
L 275.028989 229.916967 
L 276.405873 230.305995 
L 277.782758 230.500509 
L 279.159642 229.722453 
L 280.536526 229.605745 
L 283.290295 230.305995 
L 286.044064 230.772828 
L 287.420948 229.994773 
L 288.797833 229.605745 
L 290.174717 230.461606 
L 291.551602 230.344898 
L 292.928486 230.344898 
L 294.305371 229.68355 
L 295.682255 230.072578 
L 297.059139 229.878064 
L 298.436024 230.150384 
L 299.812908 229.839162 
L 302.566677 230.422703 
L 303.943562 230.267092 
L 305.320446 230.461606 
L 306.69733 230.072578 
L 308.074215 229.916967 
L 309.451099 230.3838 
L 310.827984 230.344898 
L 313.581753 230.422703 
L 314.958637 230.033675 
L 316.335521 230.461606 
L 317.712406 230.461606 
L 320.466175 230.772828 
L 323.219943 230.539412 
L 324.596828 230.617217 
L 325.973712 230.150384 
L 327.350597 230.695023 
L 328.727481 230.033675 
L 330.104366 230.65612 
L 331.48125 230.267092 
L 331.48125 230.267092 
" style="fill:none;stroke:#2ca02c;stroke-linecap:square;stroke-width:1.5;"/>
   </g>
   <g id="line2d_25">
    <path clip-path="url(#p12690c4167)" d="M 57.48125 32.290852 
L 58.858134 70.882409 
L 60.235019 80.024562 
L 61.611903 110.25202 
L 62.988788 122.623104 
L 64.365672 149.699438 
L 65.742557 140.596188 
L 67.119441 148.687966 
L 68.496325 90.878437 
L 69.87321 156.196202 
L 71.250094 155.457049 
L 72.626979 175.141855 
L 74.003863 172.068535 
L 75.380747 117.993673 
L 76.757632 171.835119 
L 78.134516 172.107438 
L 79.511401 169.734369 
L 80.888285 176.153327 
L 82.26517 148.921382 
L 83.642054 169.500952 
L 85.018938 179.576772 
L 86.395823 169.034119 
L 87.772707 166.81666 
L 89.149592 180.704952 
L 90.526476 167.361299 
L 91.903361 184.750841 
L 93.280245 175.49198 
L 94.657129 188.79673 
L 96.034014 184.945355 
L 97.410898 182.338869 
L 98.787783 180.549341 
L 100.164667 189.691494 
L 102.918436 170.356813 
L 104.29532 189.419175 
L 105.672205 191.636633 
L 107.049089 185.217675 
L 108.425974 180.121411 
L 109.802858 191.403216 
L 111.179742 176.153327 
L 112.556627 189.652591 
L 113.933511 178.098466 
L 115.310396 190.858578 
L 116.68728 178.682008 
L 118.064165 193.27055 
L 119.441049 196.927411 
L 120.817933 185.801216 
L 122.194818 184.322911 
L 123.571702 196.032647 
L 124.948587 188.252091 
L 126.325471 199.30048 
L 127.702356 196.421675 
L 129.07924 194.748855 
L 130.456124 184.284008 
L 133.209893 199.806217 
L 134.586778 181.09398 
L 135.963662 194.67105 
L 137.340546 205.758342 
L 138.717431 192.103466 
L 140.094315 186.734883 
L 141.4712 196.693994 
L 142.848084 192.375786 
L 144.224969 188.718925 
L 145.601853 203.501981 
L 146.978737 202.685022 
L 148.355622 194.904466 
L 149.732506 197.316439 
L 151.109391 206.341883 
L 152.486275 204.941383 
L 153.86316 205.797244 
L 155.240044 204.902481 
L 156.616928 193.931897 
L 157.993813 206.069564 
L 159.370697 193.776286 
L 160.747582 194.554341 
L 162.124466 207.859092 
L 163.501351 207.197744 
L 164.878235 184.478522 
L 166.255119 200.078536 
L 167.632004 204.357842 
L 169.008888 199.028161 
L 170.385773 208.092508 
L 171.762657 206.030661 
L 173.139541 202.568314 
L 174.516426 212.721939 
L 175.89331 205.991758 
L 177.270195 208.442633 
L 178.647079 196.616189 
L 180.023964 199.067064 
L 181.400848 204.085522 
L 182.777732 208.014703 
L 184.154617 206.692008 
L 185.531501 207.392258 
L 186.908386 201.945869 
L 188.28527 210.271064 
L 189.662155 211.943883 
L 191.039039 206.808717 
L 192.415923 205.135897 
L 193.792808 212.1773 
L 195.169692 205.602731 
L 196.546577 214.005731 
L 197.923461 209.493008 
L 199.300345 196.188258 
L 200.67723 217.195759 
L 202.054114 213.344383 
L 203.430999 217.857106 
L 204.807883 213.383286 
L 206.184768 209.804231 
L 207.561652 212.410717 
L 208.938536 214.161342 
L 210.315421 217.468078 
L 211.692305 222.292023 
L 213.06919 219.529925 
L 214.446074 220.5803 
L 215.822959 220.191273 
L 217.199843 215.911967 
L 218.576727 218.012717 
L 219.953612 214.200245 
L 222.707381 218.868578 
L 224.084265 219.685536 
L 225.461149 221.475064 
L 226.838034 222.603245 
L 228.214918 222.719953 
L 229.591803 220.735911 
L 230.968687 223.070078 
L 232.345572 223.342398 
L 233.722456 222.058606 
L 235.09934 225.520953 
L 236.476225 224.003745 
L 237.853109 225.015217 
L 239.229994 224.35387 
L 240.606878 225.871078 
L 241.983763 225.326439 
L 243.360647 226.999259 
L 244.737531 225.248634 
L 246.114416 227.504995 
L 248.868185 226.45462 
L 250.245069 226.337912 
L 251.621954 227.115967 
L 252.998838 225.131925 
L 254.375722 228.633175 
L 255.752607 226.376814 
L 257.129491 226.532425 
L 258.506376 226.415717 
L 259.88326 227.15487 
L 261.260144 227.699509 
L 262.637029 228.827689 
L 264.013913 229.294523 
L 265.390798 228.55537 
L 266.767682 228.166342 
L 270.898335 229.95587 
L 272.27522 230.072578 
L 275.028989 229.994773 
L 276.405873 230.267092 
L 277.782758 229.644648 
L 279.159642 229.644648 
L 280.536526 229.761356 
L 281.913411 230.228189 
L 283.290295 229.722453 
L 284.66718 229.878064 
L 286.044064 230.617217 
L 287.420948 229.566842 
L 288.797833 230.305995 
L 290.174717 230.733925 
L 291.551602 230.072578 
L 292.928486 229.722453 
L 294.305371 230.267092 
L 295.682255 230.305995 
L 298.436024 230.033675 
L 299.812908 230.500509 
L 301.189793 230.772828 
L 303.943562 230.928439 
L 305.320446 230.733925 
L 306.69733 230.072578 
L 308.074215 230.578314 
L 309.451099 230.928439 
L 310.827984 231.434175 
L 312.204868 230.889537 
L 313.581753 231.317467 
L 316.335521 230.695023 
L 317.712406 230.889537 
L 319.08929 230.889537 
L 321.843059 231.35637 
L 323.219943 231.239662 
L 324.596828 231.395273 
L 325.973712 230.967342 
L 327.350597 231.511981 
L 328.727481 231.35637 
L 330.104366 231.35637 
L 331.48125 231.08405 
L 331.48125 231.08405 
" style="fill:none;stroke:#d62728;stroke-linecap:square;stroke-width:1.5;"/>
   </g>
   <g id="patch_3">
    <path d="M 43.78125 241.718125 
L 43.78125 22.318125 
" style="fill:none;stroke:#000000;stroke-linecap:square;stroke-linejoin:miter;stroke-width:0.8;"/>
   </g>
   <g id="patch_4">
    <path d="M 345.18125 241.718125 
L 345.18125 22.318125 
" style="fill:none;stroke:#000000;stroke-linecap:square;stroke-linejoin:miter;stroke-width:0.8;"/>
   </g>
   <g id="patch_5">
    <path d="M 43.78125 241.718125 
L 345.18125 241.718125 
" style="fill:none;stroke:#000000;stroke-linecap:square;stroke-linejoin:miter;stroke-width:0.8;"/>
   </g>
   <g id="patch_6">
    <path d="M 43.78125 22.318125 
L 345.18125 22.318125 
" style="fill:none;stroke:#000000;stroke-linecap:square;stroke-linejoin:miter;stroke-width:0.8;"/>
   </g>
   <g id="text_18">
    <!-- Training of Resnet20 on CIFAR10 -->
    <g transform="translate(96.955937 16.318125)scale(0.12 -0.12)">
     <defs>
      <path d="M -0.296875 72.90625 
L 61.375 72.90625 
L 61.375 64.59375 
L 35.5 64.59375 
L 35.5 0 
L 25.59375 0 
L 25.59375 64.59375 
L -0.296875 64.59375 
z
" id="DejaVuSans-84"/>
      <path d="M 9.421875 54.6875 
L 18.40625 54.6875 
L 18.40625 0 
L 9.421875 0 
z
M 9.421875 75.984375 
L 18.40625 75.984375 
L 18.40625 64.59375 
L 9.421875 64.59375 
z
" id="DejaVuSans-105"/>
      <path d="M 54.890625 33.015625 
L 54.890625 0 
L 45.90625 0 
L 45.90625 32.71875 
Q 45.90625 40.484375 42.875 44.328125 
Q 39.84375 48.1875 33.796875 48.1875 
Q 26.515625 48.1875 22.3125 43.546875 
Q 18.109375 38.921875 18.109375 30.90625 
L 18.109375 0 
L 9.078125 0 
L 9.078125 54.6875 
L 18.109375 54.6875 
L 18.109375 46.1875 
Q 21.34375 51.125 25.703125 53.5625 
Q 30.078125 56 35.796875 56 
Q 45.21875 56 50.046875 50.171875 
Q 54.890625 44.34375 54.890625 33.015625 
z
" id="DejaVuSans-110"/>
      <path d="M 45.40625 27.984375 
Q 45.40625 37.75 41.375 43.109375 
Q 37.359375 48.484375 30.078125 48.484375 
Q 22.859375 48.484375 18.828125 43.109375 
Q 14.796875 37.75 14.796875 27.984375 
Q 14.796875 18.265625 18.828125 12.890625 
Q 22.859375 7.515625 30.078125 7.515625 
Q 37.359375 7.515625 41.375 12.890625 
Q 45.40625 18.265625 45.40625 27.984375 
z
M 54.390625 6.78125 
Q 54.390625 -7.171875 48.1875 -13.984375 
Q 42 -20.796875 29.203125 -20.796875 
Q 24.46875 -20.796875 20.265625 -20.09375 
Q 16.0625 -19.390625 12.109375 -17.921875 
L 12.109375 -9.1875 
Q 16.0625 -11.328125 19.921875 -12.34375 
Q 23.78125 -13.375 27.78125 -13.375 
Q 36.625 -13.375 41.015625 -8.765625 
Q 45.40625 -4.15625 45.40625 5.171875 
L 45.40625 9.625 
Q 42.625 4.78125 38.28125 2.390625 
Q 33.9375 0 27.875 0 
Q 17.828125 0 11.671875 7.65625 
Q 5.515625 15.328125 5.515625 27.984375 
Q 5.515625 40.671875 11.671875 48.328125 
Q 17.828125 56 27.875 56 
Q 33.9375 56 38.28125 53.609375 
Q 42.625 51.21875 45.40625 46.390625 
L 45.40625 54.6875 
L 54.390625 54.6875 
z
" id="DejaVuSans-103"/>
      <path d="M 37.109375 75.984375 
L 37.109375 68.5 
L 28.515625 68.5 
Q 23.6875 68.5 21.796875 66.546875 
Q 19.921875 64.59375 19.921875 59.515625 
L 19.921875 54.6875 
L 34.71875 54.6875 
L 34.71875 47.703125 
L 19.921875 47.703125 
L 19.921875 0 
L 10.890625 0 
L 10.890625 47.703125 
L 2.296875 47.703125 
L 2.296875 54.6875 
L 10.890625 54.6875 
L 10.890625 58.5 
Q 10.890625 67.625 15.140625 71.796875 
Q 19.390625 75.984375 28.609375 75.984375 
z
" id="DejaVuSans-102"/>
      <path d="M 44.28125 53.078125 
L 44.28125 44.578125 
Q 40.484375 46.53125 36.375 47.5 
Q 32.28125 48.484375 27.875 48.484375 
Q 21.1875 48.484375 17.84375 46.4375 
Q 14.5 44.390625 14.5 40.28125 
Q 14.5 37.15625 16.890625 35.375 
Q 19.28125 33.59375 26.515625 31.984375 
L 29.59375 31.296875 
Q 39.15625 29.25 43.1875 25.515625 
Q 47.21875 21.78125 47.21875 15.09375 
Q 47.21875 7.46875 41.1875 3.015625 
Q 35.15625 -1.421875 24.609375 -1.421875 
Q 20.21875 -1.421875 15.453125 -0.5625 
Q 10.6875 0.296875 5.421875 2 
L 5.421875 11.28125 
Q 10.40625 8.6875 15.234375 7.390625 
Q 20.0625 6.109375 24.8125 6.109375 
Q 31.15625 6.109375 34.5625 8.28125 
Q 37.984375 10.453125 37.984375 14.40625 
Q 37.984375 18.0625 35.515625 20.015625 
Q 33.0625 21.96875 24.703125 23.78125 
L 21.578125 24.515625 
Q 13.234375 26.265625 9.515625 29.90625 
Q 5.8125 33.546875 5.8125 39.890625 
Q 5.8125 47.609375 11.28125 51.796875 
Q 16.75 56 26.8125 56 
Q 31.78125 56 36.171875 55.265625 
Q 40.578125 54.546875 44.28125 53.078125 
z
" id="DejaVuSans-115"/>
      <path d="M 64.40625 67.28125 
L 64.40625 56.890625 
Q 59.421875 61.53125 53.78125 63.8125 
Q 48.140625 66.109375 41.796875 66.109375 
Q 29.296875 66.109375 22.65625 58.46875 
Q 16.015625 50.828125 16.015625 36.375 
Q 16.015625 21.96875 22.65625 14.328125 
Q 29.296875 6.6875 41.796875 6.6875 
Q 48.140625 6.6875 53.78125 8.984375 
Q 59.421875 11.28125 64.40625 15.921875 
L 64.40625 5.609375 
Q 59.234375 2.09375 53.4375 0.328125 
Q 47.65625 -1.421875 41.21875 -1.421875 
Q 24.65625 -1.421875 15.125 8.703125 
Q 5.609375 18.84375 5.609375 36.375 
Q 5.609375 53.953125 15.125 64.078125 
Q 24.65625 74.21875 41.21875 74.21875 
Q 47.75 74.21875 53.53125 72.484375 
Q 59.328125 70.75 64.40625 67.28125 
z
" id="DejaVuSans-67"/>
      <path d="M 9.8125 72.90625 
L 19.671875 72.90625 
L 19.671875 0 
L 9.8125 0 
z
" id="DejaVuSans-73"/>
      <path d="M 9.8125 72.90625 
L 51.703125 72.90625 
L 51.703125 64.59375 
L 19.671875 64.59375 
L 19.671875 43.109375 
L 48.578125 43.109375 
L 48.578125 34.8125 
L 19.671875 34.8125 
L 19.671875 0 
L 9.8125 0 
z
" id="DejaVuSans-70"/>
      <path d="M 34.1875 63.1875 
L 20.796875 26.90625 
L 47.609375 26.90625 
z
M 28.609375 72.90625 
L 39.796875 72.90625 
L 67.578125 0 
L 57.328125 0 
L 50.6875 18.703125 
L 17.828125 18.703125 
L 11.1875 0 
L 0.78125 0 
z
" id="DejaVuSans-65"/>
     </defs>
     <use xlink:href="#DejaVuSans-84"/>
     <use x="46.333984" xlink:href="#DejaVuSans-114"/>
     <use x="87.447266" xlink:href="#DejaVuSans-97"/>
     <use x="148.726562" xlink:href="#DejaVuSans-105"/>
     <use x="176.509766" xlink:href="#DejaVuSans-110"/>
     <use x="239.888672" xlink:href="#DejaVuSans-105"/>
     <use x="267.671875" xlink:href="#DejaVuSans-110"/>
     <use x="331.050781" xlink:href="#DejaVuSans-103"/>
     <use x="394.527344" xlink:href="#DejaVuSans-32"/>
     <use x="426.314453" xlink:href="#DejaVuSans-111"/>
     <use x="487.496094" xlink:href="#DejaVuSans-102"/>
     <use x="522.701172" xlink:href="#DejaVuSans-32"/>
     <use x="554.488281" xlink:href="#DejaVuSans-82"/>
     <use x="619.470703" xlink:href="#DejaVuSans-101"/>
     <use x="680.994141" xlink:href="#DejaVuSans-115"/>
     <use x="733.09375" xlink:href="#DejaVuSans-110"/>
     <use x="796.472656" xlink:href="#DejaVuSans-101"/>
     <use x="857.996094" xlink:href="#DejaVuSans-116"/>
     <use x="897.205078" xlink:href="#DejaVuSans-50"/>
     <use x="960.828125" xlink:href="#DejaVuSans-48"/>
     <use x="1024.451172" xlink:href="#DejaVuSans-32"/>
     <use x="1056.238281" xlink:href="#DejaVuSans-111"/>
     <use x="1117.419922" xlink:href="#DejaVuSans-110"/>
     <use x="1180.798828" xlink:href="#DejaVuSans-32"/>
     <use x="1212.585938" xlink:href="#DejaVuSans-67"/>
     <use x="1282.410156" xlink:href="#DejaVuSans-73"/>
     <use x="1311.902344" xlink:href="#DejaVuSans-70"/>
     <use x="1360.296875" xlink:href="#DejaVuSans-65"/>
     <use x="1428.705078" xlink:href="#DejaVuSans-82"/>
     <use x="1498.1875" xlink:href="#DejaVuSans-49"/>
     <use x="1561.810547" xlink:href="#DejaVuSans-48"/>
    </g>
   </g>
   <g id="legend_1">
    <g id="patch_7">
     <path d="M 242.48125 89.030625 
L 338.18125 89.030625 
Q 340.18125 89.030625 340.18125 87.030625 
L 340.18125 29.318125 
Q 340.18125 27.318125 338.18125 27.318125 
L 242.48125 27.318125 
Q 240.48125 27.318125 240.48125 29.318125 
L 240.48125 87.030625 
Q 240.48125 89.030625 242.48125 89.030625 
z
" style="fill:#ffffff;opacity:0.8;stroke:#cccccc;stroke-linejoin:miter;"/>
    </g>
    <g id="line2d_26">
     <path d="M 244.48125 35.416563 
L 264.48125 35.416563 
" style="fill:none;stroke:#1f77b4;stroke-linecap:square;stroke-width:1.5;"/>
    </g>
    <g id="line2d_27"/>
    <g id="text_19">
     <!-- full precision -->
     <g transform="translate(272.48125 38.916563)scale(0.1 -0.1)">
      <defs>
       <path d="M 8.5 21.578125 
L 8.5 54.6875 
L 17.484375 54.6875 
L 17.484375 21.921875 
Q 17.484375 14.15625 20.5 10.265625 
Q 23.53125 6.390625 29.59375 6.390625 
Q 36.859375 6.390625 41.078125 11.03125 
Q 45.3125 15.671875 45.3125 23.6875 
L 45.3125 54.6875 
L 54.296875 54.6875 
L 54.296875 0 
L 45.3125 0 
L 45.3125 8.40625 
Q 42.046875 3.421875 37.71875 1 
Q 33.40625 -1.421875 27.6875 -1.421875 
Q 18.265625 -1.421875 13.375 4.4375 
Q 8.5 10.296875 8.5 21.578125 
z
M 31.109375 56 
z
" id="DejaVuSans-117"/>
       <path d="M 9.421875 75.984375 
L 18.40625 75.984375 
L 18.40625 0 
L 9.421875 0 
z
" id="DejaVuSans-108"/>
      </defs>
      <use xlink:href="#DejaVuSans-102"/>
      <use x="35.205078" xlink:href="#DejaVuSans-117"/>
      <use x="98.583984" xlink:href="#DejaVuSans-108"/>
      <use x="126.367188" xlink:href="#DejaVuSans-108"/>
      <use x="154.150391" xlink:href="#DejaVuSans-32"/>
      <use x="185.9375" xlink:href="#DejaVuSans-112"/>
      <use x="249.414062" xlink:href="#DejaVuSans-114"/>
      <use x="288.277344" xlink:href="#DejaVuSans-101"/>
      <use x="349.800781" xlink:href="#DejaVuSans-99"/>
      <use x="404.78125" xlink:href="#DejaVuSans-105"/>
      <use x="432.564453" xlink:href="#DejaVuSans-115"/>
      <use x="484.664062" xlink:href="#DejaVuSans-105"/>
      <use x="512.447266" xlink:href="#DejaVuSans-111"/>
      <use x="573.628906" xlink:href="#DejaVuSans-110"/>
     </g>
    </g>
    <g id="line2d_28">
     <path d="M 244.48125 50.094688 
L 264.48125 50.094688 
" style="fill:none;stroke:#ff7f0e;stroke-linecap:square;stroke-width:1.5;"/>
    </g>
    <g id="line2d_29"/>
    <g id="text_20">
     <!-- 1 bit -->
     <g transform="translate(272.48125 53.594688)scale(0.1 -0.1)">
      <defs>
       <path d="M 48.6875 27.296875 
Q 48.6875 37.203125 44.609375 42.84375 
Q 40.53125 48.484375 33.40625 48.484375 
Q 26.265625 48.484375 22.1875 42.84375 
Q 18.109375 37.203125 18.109375 27.296875 
Q 18.109375 17.390625 22.1875 11.75 
Q 26.265625 6.109375 33.40625 6.109375 
Q 40.53125 6.109375 44.609375 11.75 
Q 48.6875 17.390625 48.6875 27.296875 
z
M 18.109375 46.390625 
Q 20.953125 51.265625 25.265625 53.625 
Q 29.59375 56 35.59375 56 
Q 45.5625 56 51.78125 48.09375 
Q 58.015625 40.1875 58.015625 27.296875 
Q 58.015625 14.40625 51.78125 6.484375 
Q 45.5625 -1.421875 35.59375 -1.421875 
Q 29.59375 -1.421875 25.265625 0.953125 
Q 20.953125 3.328125 18.109375 8.203125 
L 18.109375 0 
L 9.078125 0 
L 9.078125 75.984375 
L 18.109375 75.984375 
z
" id="DejaVuSans-98"/>
      </defs>
      <use xlink:href="#DejaVuSans-49"/>
      <use x="63.623047" xlink:href="#DejaVuSans-32"/>
      <use x="95.410156" xlink:href="#DejaVuSans-98"/>
      <use x="158.886719" xlink:href="#DejaVuSans-105"/>
      <use x="186.669922" xlink:href="#DejaVuSans-116"/>
     </g>
    </g>
    <g id="line2d_30">
     <path d="M 244.48125 64.772813 
L 264.48125 64.772813 
" style="fill:none;stroke:#2ca02c;stroke-linecap:square;stroke-width:1.5;"/>
    </g>
    <g id="line2d_31"/>
    <g id="text_21">
     <!-- 2 bits -->
     <g transform="translate(272.48125 68.272813)scale(0.1 -0.1)">
      <use xlink:href="#DejaVuSans-50"/>
      <use x="63.623047" xlink:href="#DejaVuSans-32"/>
      <use x="95.410156" xlink:href="#DejaVuSans-98"/>
      <use x="158.886719" xlink:href="#DejaVuSans-105"/>
      <use x="186.669922" xlink:href="#DejaVuSans-116"/>
      <use x="225.878906" xlink:href="#DejaVuSans-115"/>
     </g>
    </g>
    <g id="line2d_32">
     <path d="M 244.48125 79.450938 
L 264.48125 79.450938 
" style="fill:none;stroke:#d62728;stroke-linecap:square;stroke-width:1.5;"/>
    </g>
    <g id="line2d_33"/>
    <g id="text_22">
     <!-- 3 bits -->
     <g transform="translate(272.48125 82.950938)scale(0.1 -0.1)">
      <use xlink:href="#DejaVuSans-51"/>
      <use x="63.623047" xlink:href="#DejaVuSans-32"/>
      <use x="95.410156" xlink:href="#DejaVuSans-98"/>
      <use x="158.886719" xlink:href="#DejaVuSans-105"/>
      <use x="186.669922" xlink:href="#DejaVuSans-116"/>
      <use x="225.878906" xlink:href="#DejaVuSans-115"/>
     </g>
    </g>
   </g>
  </g>
 </g>
 <defs>
  <clipPath id="p12690c4167">
   <rect height="219.4" width="301.4" x="43.78125" y="22.318125"/>
  </clipPath>
 </defs>
</svg>
