<?xml version="1.0" encoding="utf-8" standalone="no"?>
<!DOCTYPE svg PUBLIC "-//W3C//DTD SVG 1.1//EN"
  "http://www.w3.org/Graphics/SVG/1.1/DTD/svg11.dtd">
<!-- Created with matplotlib (https://matplotlib.org/) -->
<svg height="279.274375pt" version="1.1" viewBox="0 0 352.38125 279.274375" width="352.38125pt" xmlns="http://www.w3.org/2000/svg" xmlns:xlink="http://www.w3.org/1999/xlink">
 <metadata>
  <rdf:RDF xmlns:cc="http://creativecommons.org/ns#" xmlns:dc="http://purl.org/dc/elements/1.1/" xmlns:rdf="http://www.w3.org/1999/02/22-rdf-syntax-ns#">
   <cc:Work>
    <dc:type rdf:resource="http://purl.org/dc/dcmitype/StillImage"/>
    <dc:date>2021-06-21T21:02:33.414509</dc:date>
    <dc:format>image/svg+xml</dc:format>
    <dc:creator>
     <cc:Agent>
      <dc:title>Matplotlib v3.3.4, https://matplotlib.org/</dc:title>
     </cc:Agent>
    </dc:creator>
   </cc:Work>
  </rdf:RDF>
 </metadata>
 <defs>
  <style type="text/css">*{stroke-linecap:butt;stroke-linejoin:round;}</style>
 </defs>
 <g id="figure_1">
  <g id="patch_1">
   <path d="M 0 279.274375 
L 352.38125 279.274375 
L 352.38125 0 
L 0 0 
z
" style="fill:none;"/>
  </g>
  <g id="axes_1">
   <g id="patch_2">
    <path d="M 43.78125 241.718125 
L 345.18125 241.718125 
L 345.18125 22.318125 
L 43.78125 22.318125 
z
" style="fill:#ffffff;"/>
   </g>
   <g id="matplotlib.axis_1">
    <g id="xtick_1">
     <g id="line2d_1">
      <defs>
       <path d="M 0 0 
L 0 3.5 
" id="m7be1025848" style="stroke:#000000;stroke-width:0.8;"/>
      </defs>
      <g>
       <use style="stroke:#000000;stroke-width:0.8;" x="56.104366" xlink:href="#m7be1025848" y="241.718125"/>
      </g>
     </g>
     <g id="text_1">
      <!-- 0 -->
      <g transform="translate(52.923116 256.316563)scale(0.1 -0.1)">
       <defs>
        <path d="M 31.78125 66.40625 
Q 24.171875 66.40625 20.328125 58.90625 
Q 16.5 51.421875 16.5 36.375 
Q 16.5 21.390625 20.328125 13.890625 
Q 24.171875 6.390625 31.78125 6.390625 
Q 39.453125 6.390625 43.28125 13.890625 
Q 47.125 21.390625 47.125 36.375 
Q 47.125 51.421875 43.28125 58.90625 
Q 39.453125 66.40625 31.78125 66.40625 
z
M 31.78125 74.21875 
Q 44.046875 74.21875 50.515625 64.515625 
Q 56.984375 54.828125 56.984375 36.375 
Q 56.984375 17.96875 50.515625 8.265625 
Q 44.046875 -1.421875 31.78125 -1.421875 
Q 19.53125 -1.421875 13.0625 8.265625 
Q 6.59375 17.96875 6.59375 36.375 
Q 6.59375 54.828125 13.0625 64.515625 
Q 19.53125 74.21875 31.78125 74.21875 
z
" id="DejaVuSans-48"/>
       </defs>
       <use xlink:href="#DejaVuSans-48"/>
      </g>
     </g>
    </g>
    <g id="xtick_2">
     <g id="line2d_2">
      <g>
       <use style="stroke:#000000;stroke-width:0.8;" x="90.526476" xlink:href="#m7be1025848" y="241.718125"/>
      </g>
     </g>
     <g id="text_2">
      <!-- 25 -->
      <g transform="translate(84.163976 256.316563)scale(0.1 -0.1)">
       <defs>
        <path d="M 19.1875 8.296875 
L 53.609375 8.296875 
L 53.609375 0 
L 7.328125 0 
L 7.328125 8.296875 
Q 12.9375 14.109375 22.625 23.890625 
Q 32.328125 33.6875 34.8125 36.53125 
Q 39.546875 41.84375 41.421875 45.53125 
Q 43.3125 49.21875 43.3125 52.78125 
Q 43.3125 58.59375 39.234375 62.25 
Q 35.15625 65.921875 28.609375 65.921875 
Q 23.96875 65.921875 18.8125 64.3125 
Q 13.671875 62.703125 7.8125 59.421875 
L 7.8125 69.390625 
Q 13.765625 71.78125 18.9375 73 
Q 24.125 74.21875 28.421875 74.21875 
Q 39.75 74.21875 46.484375 68.546875 
Q 53.21875 62.890625 53.21875 53.421875 
Q 53.21875 48.921875 51.53125 44.890625 
Q 49.859375 40.875 45.40625 35.40625 
Q 44.1875 33.984375 37.640625 27.21875 
Q 31.109375 20.453125 19.1875 8.296875 
z
" id="DejaVuSans-50"/>
        <path d="M 10.796875 72.90625 
L 49.515625 72.90625 
L 49.515625 64.59375 
L 19.828125 64.59375 
L 19.828125 46.734375 
Q 21.96875 47.46875 24.109375 47.828125 
Q 26.265625 48.1875 28.421875 48.1875 
Q 40.625 48.1875 47.75 41.5 
Q 54.890625 34.8125 54.890625 23.390625 
Q 54.890625 11.625 47.5625 5.09375 
Q 40.234375 -1.421875 26.90625 -1.421875 
Q 22.3125 -1.421875 17.546875 -0.640625 
Q 12.796875 0.140625 7.71875 1.703125 
L 7.71875 11.625 
Q 12.109375 9.234375 16.796875 8.0625 
Q 21.484375 6.890625 26.703125 6.890625 
Q 35.15625 6.890625 40.078125 11.328125 
Q 45.015625 15.765625 45.015625 23.390625 
Q 45.015625 31 40.078125 35.4375 
Q 35.15625 39.890625 26.703125 39.890625 
Q 22.75 39.890625 18.8125 39.015625 
Q 14.890625 38.140625 10.796875 36.28125 
z
" id="DejaVuSans-53"/>
       </defs>
       <use xlink:href="#DejaVuSans-50"/>
       <use x="63.623047" xlink:href="#DejaVuSans-53"/>
      </g>
     </g>
    </g>
    <g id="xtick_3">
     <g id="line2d_3">
      <g>
       <use style="stroke:#000000;stroke-width:0.8;" x="124.948587" xlink:href="#m7be1025848" y="241.718125"/>
      </g>
     </g>
     <g id="text_3">
      <!-- 50 -->
      <g transform="translate(118.586087 256.316563)scale(0.1 -0.1)">
       <use xlink:href="#DejaVuSans-53"/>
       <use x="63.623047" xlink:href="#DejaVuSans-48"/>
      </g>
     </g>
    </g>
    <g id="xtick_4">
     <g id="line2d_4">
      <g>
       <use style="stroke:#000000;stroke-width:0.8;" x="159.370697" xlink:href="#m7be1025848" y="241.718125"/>
      </g>
     </g>
     <g id="text_4">
      <!-- 75 -->
      <g transform="translate(153.008197 256.316563)scale(0.1 -0.1)">
       <defs>
        <path d="M 8.203125 72.90625 
L 55.078125 72.90625 
L 55.078125 68.703125 
L 28.609375 0 
L 18.3125 0 
L 43.21875 64.59375 
L 8.203125 64.59375 
z
" id="DejaVuSans-55"/>
       </defs>
       <use xlink:href="#DejaVuSans-55"/>
       <use x="63.623047" xlink:href="#DejaVuSans-53"/>
      </g>
     </g>
    </g>
    <g id="xtick_5">
     <g id="line2d_5">
      <g>
       <use style="stroke:#000000;stroke-width:0.8;" x="193.792808" xlink:href="#m7be1025848" y="241.718125"/>
      </g>
     </g>
     <g id="text_5">
      <!-- 100 -->
      <g transform="translate(184.249058 256.316563)scale(0.1 -0.1)">
       <defs>
        <path d="M 12.40625 8.296875 
L 28.515625 8.296875 
L 28.515625 63.921875 
L 10.984375 60.40625 
L 10.984375 69.390625 
L 28.421875 72.90625 
L 38.28125 72.90625 
L 38.28125 8.296875 
L 54.390625 8.296875 
L 54.390625 0 
L 12.40625 0 
z
" id="DejaVuSans-49"/>
       </defs>
       <use xlink:href="#DejaVuSans-49"/>
       <use x="63.623047" xlink:href="#DejaVuSans-48"/>
       <use x="127.246094" xlink:href="#DejaVuSans-48"/>
      </g>
     </g>
    </g>
    <g id="xtick_6">
     <g id="line2d_6">
      <g>
       <use style="stroke:#000000;stroke-width:0.8;" x="228.214918" xlink:href="#m7be1025848" y="241.718125"/>
      </g>
     </g>
     <g id="text_6">
      <!-- 125 -->
      <g transform="translate(218.671168 256.316563)scale(0.1 -0.1)">
       <use xlink:href="#DejaVuSans-49"/>
       <use x="63.623047" xlink:href="#DejaVuSans-50"/>
       <use x="127.246094" xlink:href="#DejaVuSans-53"/>
      </g>
     </g>
    </g>
    <g id="xtick_7">
     <g id="line2d_7">
      <g>
       <use style="stroke:#000000;stroke-width:0.8;" x="262.637029" xlink:href="#m7be1025848" y="241.718125"/>
      </g>
     </g>
     <g id="text_7">
      <!-- 150 -->
      <g transform="translate(253.093279 256.316563)scale(0.1 -0.1)">
       <use xlink:href="#DejaVuSans-49"/>
       <use x="63.623047" xlink:href="#DejaVuSans-53"/>
       <use x="127.246094" xlink:href="#DejaVuSans-48"/>
      </g>
     </g>
    </g>
    <g id="xtick_8">
     <g id="line2d_8">
      <g>
       <use style="stroke:#000000;stroke-width:0.8;" x="297.059139" xlink:href="#m7be1025848" y="241.718125"/>
      </g>
     </g>
     <g id="text_8">
      <!-- 175 -->
      <g transform="translate(287.515389 256.316563)scale(0.1 -0.1)">
       <use xlink:href="#DejaVuSans-49"/>
       <use x="63.623047" xlink:href="#DejaVuSans-55"/>
       <use x="127.246094" xlink:href="#DejaVuSans-53"/>
      </g>
     </g>
    </g>
    <g id="xtick_9">
     <g id="line2d_9">
      <g>
       <use style="stroke:#000000;stroke-width:0.8;" x="331.48125" xlink:href="#m7be1025848" y="241.718125"/>
      </g>
     </g>
     <g id="text_9">
      <!-- 200 -->
      <g transform="translate(321.9375 256.316563)scale(0.1 -0.1)">
       <use xlink:href="#DejaVuSans-50"/>
       <use x="63.623047" xlink:href="#DejaVuSans-48"/>
       <use x="127.246094" xlink:href="#DejaVuSans-48"/>
      </g>
     </g>
    </g>
    <g id="text_10">
     <!-- Epoch -->
     <g transform="translate(179.170312 269.994688)scale(0.1 -0.1)">
      <defs>
       <path d="M 9.8125 72.90625 
L 55.90625 72.90625 
L 55.90625 64.59375 
L 19.671875 64.59375 
L 19.671875 43.015625 
L 54.390625 43.015625 
L 54.390625 34.71875 
L 19.671875 34.71875 
L 19.671875 8.296875 
L 56.78125 8.296875 
L 56.78125 0 
L 9.8125 0 
z
" id="DejaVuSans-69"/>
       <path d="M 18.109375 8.203125 
L 18.109375 -20.796875 
L 9.078125 -20.796875 
L 9.078125 54.6875 
L 18.109375 54.6875 
L 18.109375 46.390625 
Q 20.953125 51.265625 25.265625 53.625 
Q 29.59375 56 35.59375 56 
Q 45.5625 56 51.78125 48.09375 
Q 58.015625 40.1875 58.015625 27.296875 
Q 58.015625 14.40625 51.78125 6.484375 
Q 45.5625 -1.421875 35.59375 -1.421875 
Q 29.59375 -1.421875 25.265625 0.953125 
Q 20.953125 3.328125 18.109375 8.203125 
z
M 48.6875 27.296875 
Q 48.6875 37.203125 44.609375 42.84375 
Q 40.53125 48.484375 33.40625 48.484375 
Q 26.265625 48.484375 22.1875 42.84375 
Q 18.109375 37.203125 18.109375 27.296875 
Q 18.109375 17.390625 22.1875 11.75 
Q 26.265625 6.109375 33.40625 6.109375 
Q 40.53125 6.109375 44.609375 11.75 
Q 48.6875 17.390625 48.6875 27.296875 
z
" id="DejaVuSans-112"/>
       <path d="M 30.609375 48.390625 
Q 23.390625 48.390625 19.1875 42.75 
Q 14.984375 37.109375 14.984375 27.296875 
Q 14.984375 17.484375 19.15625 11.84375 
Q 23.34375 6.203125 30.609375 6.203125 
Q 37.796875 6.203125 41.984375 11.859375 
Q 46.1875 17.53125 46.1875 27.296875 
Q 46.1875 37.015625 41.984375 42.703125 
Q 37.796875 48.390625 30.609375 48.390625 
z
M 30.609375 56 
Q 42.328125 56 49.015625 48.375 
Q 55.71875 40.765625 55.71875 27.296875 
Q 55.71875 13.875 49.015625 6.21875 
Q 42.328125 -1.421875 30.609375 -1.421875 
Q 18.84375 -1.421875 12.171875 6.21875 
Q 5.515625 13.875 5.515625 27.296875 
Q 5.515625 40.765625 12.171875 48.375 
Q 18.84375 56 30.609375 56 
z
" id="DejaVuSans-111"/>
       <path d="M 48.78125 52.59375 
L 48.78125 44.1875 
Q 44.96875 46.296875 41.140625 47.34375 
Q 37.3125 48.390625 33.40625 48.390625 
Q 24.65625 48.390625 19.8125 42.84375 
Q 14.984375 37.3125 14.984375 27.296875 
Q 14.984375 17.28125 19.8125 11.734375 
Q 24.65625 6.203125 33.40625 6.203125 
Q 37.3125 6.203125 41.140625 7.25 
Q 44.96875 8.296875 48.78125 10.40625 
L 48.78125 2.09375 
Q 45.015625 0.34375 40.984375 -0.53125 
Q 36.96875 -1.421875 32.421875 -1.421875 
Q 20.0625 -1.421875 12.78125 6.34375 
Q 5.515625 14.109375 5.515625 27.296875 
Q 5.515625 40.671875 12.859375 48.328125 
Q 20.21875 56 33.015625 56 
Q 37.15625 56 41.109375 55.140625 
Q 45.0625 54.296875 48.78125 52.59375 
z
" id="DejaVuSans-99"/>
       <path d="M 54.890625 33.015625 
L 54.890625 0 
L 45.90625 0 
L 45.90625 32.71875 
Q 45.90625 40.484375 42.875 44.328125 
Q 39.84375 48.1875 33.796875 48.1875 
Q 26.515625 48.1875 22.3125 43.546875 
Q 18.109375 38.921875 18.109375 30.90625 
L 18.109375 0 
L 9.078125 0 
L 9.078125 75.984375 
L 18.109375 75.984375 
L 18.109375 46.1875 
Q 21.34375 51.125 25.703125 53.5625 
Q 30.078125 56 35.796875 56 
Q 45.21875 56 50.046875 50.171875 
Q 54.890625 44.34375 54.890625 33.015625 
z
" id="DejaVuSans-104"/>
      </defs>
      <use xlink:href="#DejaVuSans-69"/>
      <use x="63.183594" xlink:href="#DejaVuSans-112"/>
      <use x="126.660156" xlink:href="#DejaVuSans-111"/>
      <use x="187.841797" xlink:href="#DejaVuSans-99"/>
      <use x="242.822266" xlink:href="#DejaVuSans-104"/>
     </g>
    </g>
   </g>
   <g id="matplotlib.axis_2">
    <g id="ytick_1">
     <g id="line2d_10">
      <path clip-path="url(#p57f6c35ca7)" d="M 43.78125 214.631786 
L 345.18125 214.631786 
" style="fill:none;stroke:#b0b0b0;stroke-dasharray:2.96,1.28;stroke-dashoffset:0;stroke-width:0.8;"/>
     </g>
     <g id="line2d_11">
      <defs>
       <path d="M 0 0 
L -3.5 0 
" id="m9a42d931d7" style="stroke:#000000;stroke-width:0.8;"/>
      </defs>
      <g>
       <use style="stroke:#000000;stroke-width:0.8;" x="43.78125" xlink:href="#m9a42d931d7" y="214.631786"/>
      </g>
     </g>
     <g id="text_11">
      <!-- 0.1 -->
      <g transform="translate(20.878125 218.431005)scale(0.1 -0.1)">
       <defs>
        <path d="M 10.6875 12.40625 
L 21 12.40625 
L 21 0 
L 10.6875 0 
z
" id="DejaVuSans-46"/>
       </defs>
       <use xlink:href="#DejaVuSans-48"/>
       <use x="63.623047" xlink:href="#DejaVuSans-46"/>
       <use x="95.410156" xlink:href="#DejaVuSans-49"/>
      </g>
     </g>
    </g>
    <g id="ytick_2">
     <g id="line2d_12">
      <path clip-path="url(#p57f6c35ca7)" d="M 43.78125 170.862959 
L 345.18125 170.862959 
" style="fill:none;stroke:#b0b0b0;stroke-dasharray:2.96,1.28;stroke-dashoffset:0;stroke-width:0.8;"/>
     </g>
     <g id="line2d_13">
      <g>
       <use style="stroke:#000000;stroke-width:0.8;" x="43.78125" xlink:href="#m9a42d931d7" y="170.862959"/>
      </g>
     </g>
     <g id="text_12">
      <!-- 0.2 -->
      <g transform="translate(20.878125 174.662178)scale(0.1 -0.1)">
       <use xlink:href="#DejaVuSans-48"/>
       <use x="63.623047" xlink:href="#DejaVuSans-46"/>
       <use x="95.410156" xlink:href="#DejaVuSans-50"/>
      </g>
     </g>
    </g>
    <g id="ytick_3">
     <g id="line2d_14">
      <path clip-path="url(#p57f6c35ca7)" d="M 43.78125 127.094132 
L 345.18125 127.094132 
" style="fill:none;stroke:#b0b0b0;stroke-dasharray:2.96,1.28;stroke-dashoffset:0;stroke-width:0.8;"/>
     </g>
     <g id="line2d_15">
      <g>
       <use style="stroke:#000000;stroke-width:0.8;" x="43.78125" xlink:href="#m9a42d931d7" y="127.094132"/>
      </g>
     </g>
     <g id="text_13">
      <!-- 0.3 -->
      <g transform="translate(20.878125 130.893351)scale(0.1 -0.1)">
       <defs>
        <path d="M 40.578125 39.3125 
Q 47.65625 37.796875 51.625 33 
Q 55.609375 28.21875 55.609375 21.1875 
Q 55.609375 10.40625 48.1875 4.484375 
Q 40.765625 -1.421875 27.09375 -1.421875 
Q 22.515625 -1.421875 17.65625 -0.515625 
Q 12.796875 0.390625 7.625 2.203125 
L 7.625 11.71875 
Q 11.71875 9.328125 16.59375 8.109375 
Q 21.484375 6.890625 26.8125 6.890625 
Q 36.078125 6.890625 40.9375 10.546875 
Q 45.796875 14.203125 45.796875 21.1875 
Q 45.796875 27.640625 41.28125 31.265625 
Q 36.765625 34.90625 28.71875 34.90625 
L 20.21875 34.90625 
L 20.21875 43.015625 
L 29.109375 43.015625 
Q 36.375 43.015625 40.234375 45.921875 
Q 44.09375 48.828125 44.09375 54.296875 
Q 44.09375 59.90625 40.109375 62.90625 
Q 36.140625 65.921875 28.71875 65.921875 
Q 24.65625 65.921875 20.015625 65.03125 
Q 15.375 64.15625 9.8125 62.3125 
L 9.8125 71.09375 
Q 15.4375 72.65625 20.34375 73.4375 
Q 25.25 74.21875 29.59375 74.21875 
Q 40.828125 74.21875 47.359375 69.109375 
Q 53.90625 64.015625 53.90625 55.328125 
Q 53.90625 49.265625 50.4375 45.09375 
Q 46.96875 40.921875 40.578125 39.3125 
z
" id="DejaVuSans-51"/>
       </defs>
       <use xlink:href="#DejaVuSans-48"/>
       <use x="63.623047" xlink:href="#DejaVuSans-46"/>
       <use x="95.410156" xlink:href="#DejaVuSans-51"/>
      </g>
     </g>
    </g>
    <g id="ytick_4">
     <g id="line2d_16">
      <path clip-path="url(#p57f6c35ca7)" d="M 43.78125 83.325305 
L 345.18125 83.325305 
" style="fill:none;stroke:#b0b0b0;stroke-dasharray:2.96,1.28;stroke-dashoffset:0;stroke-width:0.8;"/>
     </g>
     <g id="line2d_17">
      <g>
       <use style="stroke:#000000;stroke-width:0.8;" x="43.78125" xlink:href="#m9a42d931d7" y="83.325305"/>
      </g>
     </g>
     <g id="text_14">
      <!-- 0.4 -->
      <g transform="translate(20.878125 87.124524)scale(0.1 -0.1)">
       <defs>
        <path d="M 37.796875 64.3125 
L 12.890625 25.390625 
L 37.796875 25.390625 
z
M 35.203125 72.90625 
L 47.609375 72.90625 
L 47.609375 25.390625 
L 58.015625 25.390625 
L 58.015625 17.1875 
L 47.609375 17.1875 
L 47.609375 0 
L 37.796875 0 
L 37.796875 17.1875 
L 4.890625 17.1875 
L 4.890625 26.703125 
z
" id="DejaVuSans-52"/>
       </defs>
       <use xlink:href="#DejaVuSans-48"/>
       <use x="63.623047" xlink:href="#DejaVuSans-46"/>
       <use x="95.410156" xlink:href="#DejaVuSans-52"/>
      </g>
     </g>
    </g>
    <g id="ytick_5">
     <g id="line2d_18">
      <path clip-path="url(#p57f6c35ca7)" d="M 43.78125 39.556478 
L 345.18125 39.556478 
" style="fill:none;stroke:#b0b0b0;stroke-dasharray:2.96,1.28;stroke-dashoffset:0;stroke-width:0.8;"/>
     </g>
     <g id="line2d_19">
      <g>
       <use style="stroke:#000000;stroke-width:0.8;" x="43.78125" xlink:href="#m9a42d931d7" y="39.556478"/>
      </g>
     </g>
     <g id="text_15">
      <!-- 0.5 -->
      <g transform="translate(20.878125 43.355696)scale(0.1 -0.1)">
       <use xlink:href="#DejaVuSans-48"/>
       <use x="63.623047" xlink:href="#DejaVuSans-46"/>
       <use x="95.410156" xlink:href="#DejaVuSans-53"/>
      </g>
     </g>
    </g>
    <g id="text_16">
     <!-- Error Rate -->
     <g transform="translate(14.798438 157.254844)rotate(-90)scale(0.1 -0.1)">
      <defs>
       <path d="M 41.109375 46.296875 
Q 39.59375 47.171875 37.8125 47.578125 
Q 36.03125 48 33.890625 48 
Q 26.265625 48 22.1875 43.046875 
Q 18.109375 38.09375 18.109375 28.8125 
L 18.109375 0 
L 9.078125 0 
L 9.078125 54.6875 
L 18.109375 54.6875 
L 18.109375 46.1875 
Q 20.953125 51.171875 25.484375 53.578125 
Q 30.03125 56 36.53125 56 
Q 37.453125 56 38.578125 55.875 
Q 39.703125 55.765625 41.0625 55.515625 
z
" id="DejaVuSans-114"/>
       <path id="DejaVuSans-32"/>
       <path d="M 44.390625 34.1875 
Q 47.5625 33.109375 50.5625 29.59375 
Q 53.5625 26.078125 56.59375 19.921875 
L 66.609375 0 
L 56 0 
L 46.6875 18.703125 
Q 43.0625 26.03125 39.671875 28.421875 
Q 36.28125 30.8125 30.421875 30.8125 
L 19.671875 30.8125 
L 19.671875 0 
L 9.8125 0 
L 9.8125 72.90625 
L 32.078125 72.90625 
Q 44.578125 72.90625 50.734375 67.671875 
Q 56.890625 62.453125 56.890625 51.90625 
Q 56.890625 45.015625 53.6875 40.46875 
Q 50.484375 35.9375 44.390625 34.1875 
z
M 19.671875 64.796875 
L 19.671875 38.921875 
L 32.078125 38.921875 
Q 39.203125 38.921875 42.84375 42.21875 
Q 46.484375 45.515625 46.484375 51.90625 
Q 46.484375 58.296875 42.84375 61.546875 
Q 39.203125 64.796875 32.078125 64.796875 
z
" id="DejaVuSans-82"/>
       <path d="M 34.28125 27.484375 
Q 23.390625 27.484375 19.1875 25 
Q 14.984375 22.515625 14.984375 16.5 
Q 14.984375 11.71875 18.140625 8.90625 
Q 21.296875 6.109375 26.703125 6.109375 
Q 34.1875 6.109375 38.703125 11.40625 
Q 43.21875 16.703125 43.21875 25.484375 
L 43.21875 27.484375 
z
M 52.203125 31.203125 
L 52.203125 0 
L 43.21875 0 
L 43.21875 8.296875 
Q 40.140625 3.328125 35.546875 0.953125 
Q 30.953125 -1.421875 24.3125 -1.421875 
Q 15.921875 -1.421875 10.953125 3.296875 
Q 6 8.015625 6 15.921875 
Q 6 25.140625 12.171875 29.828125 
Q 18.359375 34.515625 30.609375 34.515625 
L 43.21875 34.515625 
L 43.21875 35.40625 
Q 43.21875 41.609375 39.140625 45 
Q 35.0625 48.390625 27.6875 48.390625 
Q 23 48.390625 18.546875 47.265625 
Q 14.109375 46.140625 10.015625 43.890625 
L 10.015625 52.203125 
Q 14.9375 54.109375 19.578125 55.046875 
Q 24.21875 56 28.609375 56 
Q 40.484375 56 46.34375 49.84375 
Q 52.203125 43.703125 52.203125 31.203125 
z
" id="DejaVuSans-97"/>
       <path d="M 18.3125 70.21875 
L 18.3125 54.6875 
L 36.8125 54.6875 
L 36.8125 47.703125 
L 18.3125 47.703125 
L 18.3125 18.015625 
Q 18.3125 11.328125 20.140625 9.421875 
Q 21.96875 7.515625 27.59375 7.515625 
L 36.8125 7.515625 
L 36.8125 0 
L 27.59375 0 
Q 17.1875 0 13.234375 3.875 
Q 9.28125 7.765625 9.28125 18.015625 
L 9.28125 47.703125 
L 2.6875 47.703125 
L 2.6875 54.6875 
L 9.28125 54.6875 
L 9.28125 70.21875 
z
" id="DejaVuSans-116"/>
       <path d="M 56.203125 29.59375 
L 56.203125 25.203125 
L 14.890625 25.203125 
Q 15.484375 15.921875 20.484375 11.0625 
Q 25.484375 6.203125 34.421875 6.203125 
Q 39.59375 6.203125 44.453125 7.46875 
Q 49.3125 8.734375 54.109375 11.28125 
L 54.109375 2.78125 
Q 49.265625 0.734375 44.1875 -0.34375 
Q 39.109375 -1.421875 33.890625 -1.421875 
Q 20.796875 -1.421875 13.15625 6.1875 
Q 5.515625 13.8125 5.515625 26.8125 
Q 5.515625 40.234375 12.765625 48.109375 
Q 20.015625 56 32.328125 56 
Q 43.359375 56 49.78125 48.890625 
Q 56.203125 41.796875 56.203125 29.59375 
z
M 47.21875 32.234375 
Q 47.125 39.59375 43.09375 43.984375 
Q 39.0625 48.390625 32.421875 48.390625 
Q 24.90625 48.390625 20.390625 44.140625 
Q 15.875 39.890625 15.1875 32.171875 
z
" id="DejaVuSans-101"/>
      </defs>
      <use xlink:href="#DejaVuSans-69"/>
      <use x="63.183594" xlink:href="#DejaVuSans-114"/>
      <use x="102.546875" xlink:href="#DejaVuSans-114"/>
      <use x="141.410156" xlink:href="#DejaVuSans-111"/>
      <use x="202.591797" xlink:href="#DejaVuSans-114"/>
      <use x="243.705078" xlink:href="#DejaVuSans-32"/>
      <use x="275.492188" xlink:href="#DejaVuSans-82"/>
      <use x="342.724609" xlink:href="#DejaVuSans-97"/>
      <use x="404.003906" xlink:href="#DejaVuSans-116"/>
      <use x="443.212891" xlink:href="#DejaVuSans-101"/>
     </g>
    </g>
   </g>
   <g id="line2d_20">
    <path clip-path="url(#p57f6c35ca7)" d="M 57.48125 74.877921 
L 58.858134 138.561565 
L 60.235019 144.251512 
L 61.611903 171.431954 
L 62.988788 166.267232 
L 64.365672 178.391197 
L 65.742557 184.212451 
L 67.119441 189.420942 
L 69.87321 196.774105 
L 71.250094 196.555261 
L 72.626979 204.214805 
L 74.003863 203.995961 
L 75.380747 203.908424 
L 76.757632 203.339429 
L 78.134516 209.992291 
L 79.511401 194.366819 
L 80.888285 205.440333 
L 82.26517 204.871338 
L 83.642054 209.073145 
L 85.018938 203.120585 
L 86.395823 206.928473 
L 87.772707 210.254904 
L 89.149592 203.208122 
L 90.526476 209.817215 
L 91.903361 210.692592 
L 93.280245 205.309026 
L 94.657129 203.602042 
L 96.034014 209.773446 
L 97.410898 203.820886 
L 98.787783 216.119926 
L 100.164667 209.817215 
L 101.541552 213.01234 
L 102.918436 211.655506 
L 104.29532 210.036059 
L 105.672205 209.467065 
L 107.049089 212.26827 
L 108.425974 208.066462 
L 109.802858 208.372844 
L 111.179742 211.217818 
L 112.556627 208.941839 
L 113.933511 215.332088 
L 115.310396 213.36249 
L 116.68728 214.675555 
L 118.064165 211.086511 
L 119.441049 211.830581 
L 120.817933 212.312038 
L 122.194818 213.581334 
L 123.571702 212.924802 
L 124.948587 215.332088 
L 126.325471 216.645152 
L 127.702356 210.605054 
L 129.07924 206.228171 
L 130.456124 211.174049 
L 131.833009 215.288319 
L 133.209893 214.10656 
L 134.586778 211.174049 
L 135.963662 212.574651 
L 137.340546 212.793496 
L 138.717431 210.911436 
L 140.094315 213.099877 
L 141.4712 216.163695 
L 142.848084 211.830581 
L 144.224969 217.126609 
L 145.601853 209.160683 
L 148.355622 216.688921 
L 149.732506 204.7838 
L 151.109391 214.894399 
L 152.486275 212.487114 
L 155.240044 213.75641 
L 156.616928 214.194098 
L 157.993813 212.530883 
L 159.370697 218.658518 
L 160.747582 214.588017 
L 162.124466 218.133292 
L 163.501351 217.608067 
L 164.878235 218.177061 
L 166.255119 209.204452 
L 167.632004 215.463394 
L 169.008888 219.70897 
L 170.385773 212.312038 
L 171.762657 212.136963 
L 173.139541 216.645152 
L 174.516426 217.257916 
L 175.89331 215.157012 
L 177.270195 213.75641 
L 178.647079 219.096207 
L 180.023964 216.688921 
L 181.400848 213.36249 
L 182.777732 221.153342 
L 184.154617 211.13028 
L 185.531501 218.089524 
L 186.908386 220.890729 
L 188.28527 215.813545 
L 189.662155 218.483443 
L 191.039039 217.87068 
L 192.415923 223.385552 
L 193.792808 221.766105 
L 195.169692 217.739373 
L 196.546577 218.527212 
L 197.923461 220.365503 
L 199.300345 221.109573 
L 200.67723 218.439674 
L 202.054114 220.715653 
L 203.430999 220.190427 
L 204.807883 221.372186 
L 206.184768 220.803191 
L 207.561652 219.752739 
L 208.938536 219.139975 
L 210.315421 224.129622 
L 211.692305 220.540578 
L 213.06919 223.341783 
L 214.446074 223.122939 
L 215.822959 223.035401 
L 217.199843 223.473089 
L 218.576727 222.947863 
L 219.953612 223.691934 
L 221.330496 221.853643 
L 222.707381 224.260928 
L 224.084265 225.31138 
L 225.461149 227.324746 
L 226.838034 225.617762 
L 228.214918 227.93751 
L 229.591803 228.025047 
L 230.968687 226.843289 
L 232.345572 226.318063 
L 233.722456 228.812886 
L 235.09934 228.025047 
L 236.476225 227.762434 
L 237.853109 229.950876 
L 239.229994 228.418967 
L 240.606878 228.944193 
L 241.983763 228.987962 
L 243.360647 228.462736 
L 244.737531 229.907107 
L 246.114416 230.432333 
L 247.4913 230.082182 
L 248.868185 230.870021 
L 250.245069 229.950876 
L 251.621954 230.694946 
L 252.998838 230.519871 
L 254.375722 231.263941 
L 255.752607 230.694946 
L 257.129491 230.519871 
L 258.506376 229.732032 
L 259.88326 230.826252 
L 261.260144 231.132634 
L 262.637029 230.213489 
L 264.013913 230.476102 
L 265.390798 230.388564 
L 268.144567 230.563639 
L 269.521451 229.950876 
L 270.898335 230.388564 
L 272.27522 230.388564 
L 273.652104 230.082182 
L 275.028989 230.91379 
L 276.405873 231.088865 
L 277.782758 230.519871 
L 279.159642 231.088865 
L 280.536526 230.607408 
L 281.913411 230.826252 
L 283.290295 230.476102 
L 284.66718 231.132634 
L 286.044064 230.738715 
L 287.420948 231.176403 
L 288.797833 231.001328 
L 290.174717 231.526554 
L 291.551602 230.91379 
L 292.928486 231.045096 
L 295.682255 230.957559 
L 297.059139 231.176403 
L 298.436024 230.826252 
L 301.189793 230.870021 
L 303.943562 230.738715 
L 305.320446 231.001328 
L 308.074215 230.870021 
L 309.451099 230.694946 
L 310.827984 231.001328 
L 312.204868 230.957559 
L 314.958637 231.395247 
L 316.335521 231.482785 
L 319.08929 230.91379 
L 320.466175 230.957559 
L 321.843059 231.570322 
L 323.219943 230.870021 
L 324.596828 231.045096 
L 325.973712 231.045096 
L 327.350597 231.351478 
L 328.727481 231.132634 
L 331.48125 231.263941 
L 331.48125 231.263941 
" style="fill:none;stroke:#1f77b4;stroke-linecap:square;stroke-width:1.5;"/>
   </g>
   <g id="line2d_21">
    <path clip-path="url(#p57f6c35ca7)" d="M 57.48125 32.290852 
L 58.858134 104.115498 
L 60.235019 131.908703 
L 61.611903 155.806483 
L 62.988788 170.906728 
L 64.365672 173.314013 
L 65.742557 181.323709 
L 67.119441 173.839239 
L 68.496325 186.575968 
L 69.87321 181.061096 
L 71.250094 198.262245 
L 72.626979 189.771092 
L 74.003863 198.174707 
L 75.380747 199.356466 
L 76.757632 204.652494 
L 78.134516 200.800837 
L 79.511401 207.278623 
L 80.888285 207.103548 
L 82.26517 207.453699 
L 83.642054 202.201439 
L 85.018938 202.682896 
L 86.395823 210.561285 
L 87.772707 199.400234 
L 89.149592 201.80752 
L 90.526476 206.27194 
L 91.903361 203.514504 
L 93.280245 209.64214 
L 94.657129 208.154 
L 96.034014 209.423296 
L 97.410898 202.595359 
L 98.787783 207.191086 
L 100.164667 209.291989 
L 101.541552 206.403247 
L 102.918436 202.332746 
L 104.29532 208.022693 
L 105.672205 202.682896 
L 107.049089 210.123597 
L 108.425974 206.447016 
L 109.802858 205.396564 
L 111.179742 204.127268 
L 112.556627 213.056109 
L 113.933511 210.998974 
L 115.310396 197.824557 
L 116.68728 211.786813 
L 118.064165 198.043401 
L 119.441049 209.204452 
L 120.817933 206.140634 
L 123.571702 209.510834 
L 124.948587 200.012998 
L 126.325471 212.530883 
L 127.702356 212.224501 
L 129.07924 213.056109 
L 130.456124 212.924802 
L 131.833009 208.460382 
L 133.209893 210.167366 
L 134.586778 197.299331 
L 135.963662 211.87435 
L 137.340546 204.915107 
L 140.094315 203.164354 
L 141.4712 206.27194 
L 142.848084 211.086511 
L 144.224969 213.318721 
L 145.601853 209.204452 
L 146.978737 204.302343 
L 148.355622 213.537566 
L 149.732506 205.17772 
L 151.109391 205.659177 
L 152.486275 212.26827 
L 153.86316 216.382539 
L 155.240044 211.5242 
L 156.616928 212.968571 
L 157.993813 212.224501 
L 159.370697 211.699275 
L 160.747582 211.743044 
L 162.124466 211.961888 
L 163.501351 207.191086 
L 164.878235 216.645152 
L 166.255119 212.749727 
L 167.632004 214.806862 
L 169.008888 213.493797 
L 170.385773 211.217818 
L 171.762657 211.961888 
L 173.139541 212.005657 
L 174.516426 215.288319 
L 175.89331 211.305355 
L 177.270195 210.342441 
L 178.647079 215.24455 
L 180.023964 217.126609 
L 181.400848 216.032389 
L 182.777732 211.042742 
L 184.154617 216.863996 
L 185.531501 215.069475 
L 186.908386 216.557615 
L 188.28527 210.911436 
L 189.662155 213.75641 
L 191.039039 218.439674 
L 192.415923 216.338771 
L 193.792808 212.837264 
L 195.169692 212.355807 
L 196.546577 219.008669 
L 197.923461 215.288319 
L 199.300345 216.119926 
L 200.67723 213.406259 
L 202.054114 214.894399 
L 203.430999 215.507163 
L 204.807883 217.783142 
L 206.184768 216.513846 
L 207.561652 215.98862 
L 208.938536 218.001986 
L 210.315421 216.776459 
L 211.692305 218.570981 
L 213.06919 218.089524 
L 214.446074 215.200781 
L 215.822959 218.746056 
L 217.199843 213.318721 
L 218.576727 217.783142 
L 219.953612 218.746056 
L 221.330496 214.10656 
L 222.707381 218.702287 
L 224.084265 219.35882 
L 225.461149 215.638469 
L 226.838034 218.746056 
L 228.214918 215.769776 
L 229.591803 216.426308 
L 230.968687 221.19711 
L 232.345572 221.284648 
L 233.722456 217.082841 
L 235.09934 222.116256 
L 236.476225 219.70897 
L 237.853109 221.547261 
L 240.606878 220.84696 
L 241.983763 220.803191 
L 243.360647 220.365503 
L 244.737531 222.772788 
L 246.114416 223.910778 
L 247.4913 220.84696 
L 248.868185 222.072487 
L 250.245069 222.378869 
L 251.621954 224.786154 
L 252.998838 223.429321 
L 254.375722 224.786154 
L 255.752607 224.217159 
L 257.129491 220.934497 
L 258.506376 221.809874 
L 259.88326 225.398918 
L 261.260144 225.398918 
L 262.637029 224.829923 
L 264.013913 226.142988 
L 265.390798 223.998315 
L 266.767682 227.105902 
L 268.144567 226.405601 
L 269.521451 225.136305 
L 272.27522 227.368515 
L 273.652104 227.806203 
L 275.028989 227.456053 
L 276.405873 227.631128 
L 277.782758 228.550273 
L 279.159642 227.19344 
L 280.536526 230.125951 
L 281.913411 229.775801 
L 283.290295 227.368515 
L 284.66718 229.163037 
L 286.044064 229.688263 
L 287.420948 228.769117 
L 288.797833 230.213489 
L 290.174717 229.469419 
L 291.551602 229.513188 
L 292.928486 229.163037 
L 294.305371 229.994645 
L 297.059139 229.907107 
L 298.436024 230.301026 
L 299.812908 229.994645 
L 301.189793 230.257258 
L 303.943562 231.132634 
L 305.320446 230.957559 
L 306.69733 231.351478 
L 308.074215 231.045096 
L 309.451099 231.745398 
L 310.827984 230.782484 
L 312.204868 231.263941 
L 313.581753 230.91379 
L 314.958637 231.176403 
L 316.335521 231.045096 
L 317.712406 231.088865 
L 319.08929 231.001328 
L 320.466175 231.526554 
L 321.843059 231.220172 
L 323.219943 231.482785 
L 324.596828 231.351478 
L 325.973712 231.045096 
L 327.350597 231.132634 
L 328.727481 231.351478 
L 330.104366 230.738715 
L 331.48125 231.220172 
L 331.48125 231.220172 
" style="fill:none;stroke:#ff7f0e;stroke-linecap:square;stroke-width:1.5;"/>
   </g>
   <g id="line2d_22">
    <path clip-path="url(#p57f6c35ca7)" d="M 57.48125 56.407476 
L 58.858134 94.924044 
L 60.235019 110.987204 
L 61.611903 135.629053 
L 62.988788 166.923765 
L 64.365672 171.475723 
L 65.742557 173.357782 
L 67.119441 173.576626 
L 68.496325 179.485418 
L 69.87321 189.508479 
L 71.250094 187.276269 
L 72.626979 191.696921 
L 74.003863 185.39421 
L 75.380747 200.012998 
L 76.757632 203.208122 
L 78.134516 202.026364 
L 79.511401 195.504809 
L 80.888285 202.55159 
L 82.26517 192.09084 
L 83.642054 203.339429 
L 85.018938 204.564956 
L 86.395823 199.400234 
L 87.772707 201.019681 
L 89.149592 206.140634 
L 90.526476 200.188073 
L 91.903361 207.978925 
L 93.280245 186.88235 
L 94.657129 203.645811 
L 96.034014 207.322392 
L 97.410898 205.615408 
L 98.787783 206.228171 
L 100.164667 203.733348 
L 101.541552 194.541895 
L 102.918436 211.436662 
L 104.29532 211.611737 
L 105.672205 197.518175 
L 107.049089 203.645811 
L 108.425974 203.645811 
L 109.802858 205.52787 
L 111.179742 206.140634 
L 112.556627 199.706616 
L 113.933511 209.554602 
L 115.310396 208.066462 
L 116.68728 210.211135 
L 118.064165 207.234855 
L 119.441049 205.309026 
L 120.817933 207.716312 
L 122.194818 211.217818 
L 123.571702 207.147317 
L 124.948587 209.948522 
L 126.325471 205.52787 
L 127.702356 204.302343 
L 129.07924 203.820886 
L 130.456124 209.160683 
L 131.833009 205.440333 
L 133.209893 211.5242 
L 134.586778 211.436662 
L 135.963662 212.881033 
L 137.340546 212.968571 
L 138.717431 209.423296 
L 140.094315 195.023352 
L 141.4712 210.079828 
L 142.848084 212.355807 
L 144.224969 203.339429 
L 145.601853 213.143646 
L 146.978737 211.261587 
L 148.355622 208.766763 
L 149.732506 214.237867 
L 151.109391 210.342441 
L 152.486275 213.668872 
L 153.86316 209.379527 
L 155.240044 209.729678 
L 156.616928 209.904753 
L 157.993813 207.147317 
L 159.370697 215.288319 
L 160.747582 207.541236 
L 162.124466 201.194756 
L 163.501351 208.810532 
L 164.878235 210.517517 
L 166.255119 210.867667 
L 167.632004 212.093194 
L 169.008888 207.453699 
L 170.385773 201.982595 
L 171.762657 211.655506 
L 173.139541 211.567968 
L 174.516426 213.056109 
L 175.89331 215.069475 
L 177.270195 214.456711 
L 178.647079 210.473748 
L 180.023964 216.207464 
L 181.400848 213.843947 
L 182.777732 209.860984 
L 184.154617 203.076816 
L 185.531501 213.625103 
L 186.908386 216.295002 
L 188.28527 216.338771 
L 189.662155 212.312038 
L 192.415923 216.601384 
L 193.792808 216.645152 
L 195.169692 218.352137 
L 196.546577 218.308368 
L 197.923461 217.170378 
L 200.67723 210.517517 
L 202.054114 215.069475 
L 203.430999 215.5947 
L 204.807883 215.682238 
L 206.184768 217.651835 
L 207.561652 217.170378 
L 208.938536 215.857313 
L 210.315421 220.365503 
L 211.692305 217.608067 
L 213.06919 215.332088 
L 215.822959 216.907765 
L 217.199843 219.35882 
L 218.576727 220.277965 
L 219.953612 215.769776 
L 221.330496 218.439674 
L 222.707381 219.227513 
L 224.084265 214.412942 
L 225.461149 218.133292 
L 226.838034 217.651835 
L 228.214918 215.638469 
L 229.591803 218.921131 
L 230.968687 213.668872 
L 232.345572 220.321734 
L 233.722456 218.789825 
L 235.09934 219.840277 
L 236.476225 221.503492 
L 239.229994 219.008669 
L 240.606878 219.70897 
L 241.983763 219.884046 
L 243.360647 218.789825 
L 244.737531 223.07917 
L 246.114416 220.409271 
L 247.4913 224.611079 
L 248.868185 224.260928 
L 250.245069 222.422638 
L 251.621954 222.203793 
L 252.998838 217.039072 
L 255.752607 225.048767 
L 257.129491 224.56731 
L 258.506376 224.917461 
L 259.88326 223.560627 
L 261.260144 225.573993 
L 262.637029 225.967913 
L 264.013913 226.668214 
L 265.390798 226.142988 
L 266.767682 224.611079 
L 268.144567 225.924144 
L 269.521451 227.806203 
L 270.898335 227.368515 
L 272.27522 227.631128 
L 273.652104 227.149671 
L 275.028989 227.19344 
L 276.405873 226.361832 
L 277.782758 229.600725 
L 279.159642 229.469419 
L 280.536526 229.556956 
L 281.913411 229.03173 
L 283.290295 228.243892 
L 284.66718 228.987962 
L 286.044064 229.556956 
L 288.797833 229.250575 
L 290.174717 230.213489 
L 291.551602 229.381881 
L 292.928486 229.556956 
L 295.682255 229.644494 
L 297.059139 230.563639 
L 298.436024 230.125951 
L 299.812908 230.432333 
L 301.189793 230.038413 
L 302.566677 230.519871 
L 305.320446 230.782484 
L 306.69733 230.432333 
L 308.074215 230.738715 
L 309.451099 230.519871 
L 310.827984 230.519871 
L 312.204868 231.045096 
L 313.581753 230.694946 
L 314.958637 230.826252 
L 316.335521 231.395247 
L 317.712406 230.91379 
L 320.466175 230.651177 
L 321.843059 231.307709 
L 324.596828 230.738715 
L 325.973712 231.176403 
L 327.350597 231.176403 
L 328.727481 230.91379 
L 330.104366 230.782484 
L 331.48125 231.307709 
L 331.48125 231.307709 
" style="fill:none;stroke:#2ca02c;stroke-linecap:square;stroke-width:1.5;"/>
   </g>
   <g id="line2d_23">
    <path clip-path="url(#p57f6c35ca7)" d="M 57.48125 35.092057 
L 60.235019 137.59865 
L 61.611903 152.348745 
L 64.365672 171.738336 
L 65.742557 177.209439 
L 67.119441 184.431296 
L 68.496325 185.74436 
L 69.87321 192.922448 
L 71.250094 188.589334 
L 72.626979 199.57531 
L 74.003863 183.862301 
L 75.380747 193.535212 
L 76.757632 200.188073 
L 78.134516 199.531541 
L 79.511401 202.245208 
L 80.888285 197.999632 
L 82.26517 206.140634 
L 83.642054 191.434308 
L 85.018938 196.94918 
L 86.395823 201.238525 
L 87.772707 206.709629 
L 89.149592 203.120585 
L 90.526476 201.4136 
L 91.903361 206.840935 
L 93.280245 203.29566 
L 94.657129 206.228171 
L 96.034014 201.238525 
L 97.410898 206.840935 
L 98.787783 204.871338 
L 100.164667 200.188073 
L 101.541552 204.7838 
L 102.918436 207.716312 
L 105.672205 210.692592 
L 107.049089 211.436662 
L 108.425974 206.534553 
L 109.802858 206.709629 
L 111.179742 202.507821 
L 112.556627 206.359478 
L 113.933511 205.746714 
L 115.310396 208.547919 
L 116.68728 208.022693 
L 118.064165 209.860984 
L 119.441049 205.615408 
L 120.817933 211.5242 
L 122.194818 212.61842 
L 123.571702 208.241538 
L 124.948587 210.867667 
L 126.325471 210.867667 
L 127.702356 204.03973 
L 129.07924 212.705958 
L 130.456124 213.274953 
L 131.833009 214.281636 
L 133.209893 203.251891 
L 135.963662 211.261587 
L 137.340546 209.860984 
L 138.717431 201.107219 
L 140.094315 210.692592 
L 141.4712 204.696263 
L 142.848084 206.140634 
L 144.224969 211.87435 
L 145.601853 208.985608 
L 146.978737 212.662189 
L 148.355622 209.64214 
L 149.732506 209.904753 
L 151.109391 215.24455 
L 152.486275 211.261587 
L 153.86316 204.521187 
L 155.240044 208.854301 
L 156.616928 205.615408 
L 157.993813 210.78013 
L 159.370697 211.392893 
L 160.747582 213.975254 
L 162.124466 212.924802 
L 163.501351 209.992291 
L 164.878235 214.456711 
L 166.255119 217.257916 
L 167.632004 213.625103 
L 169.008888 211.5242 
L 170.385773 208.329075 
L 171.762657 210.998974 
L 173.139541 211.918119 
L 174.516426 213.274953 
L 175.89331 213.36249 
L 177.270195 208.197769 
L 178.647079 212.837264 
L 180.023964 214.194098 
L 181.400848 207.01601 
L 182.777732 211.086511 
L 184.154617 211.261587 
L 185.531501 206.928473 
L 186.908386 215.332088 
L 188.28527 212.093194 
L 189.662155 218.22083 
L 191.039039 209.64214 
L 192.415923 214.412942 
L 193.792808 212.574651 
L 195.169692 218.395905 
L 196.546577 216.251233 
L 197.923461 212.093194 
L 199.300345 217.257916 
L 200.67723 216.251233 
L 202.054114 212.355807 
L 203.430999 211.918119 
L 204.807883 218.308368 
L 207.561652 212.224501 
L 208.938536 213.75641 
L 210.315421 216.907765 
L 211.692305 214.50048 
L 213.06919 218.570981 
L 214.446074 216.295002 
L 215.822959 220.234196 
L 219.953612 214.50048 
L 221.330496 217.170378 
L 222.707381 220.146659 
L 224.084265 220.584347 
L 225.461149 221.328417 
L 226.838034 215.682238 
L 228.214918 221.240879 
L 229.591803 217.651835 
L 230.968687 220.277965 
L 232.345572 218.308368 
L 233.722456 218.877363 
L 235.09934 220.890729 
L 236.476225 217.826911 
L 237.853109 223.385552 
L 239.229994 219.796508 
L 240.606878 220.015352 
L 241.983763 222.860326 
L 243.360647 216.470077 
L 244.737531 220.978266 
L 246.114416 220.628116 
L 247.4913 221.415955 
L 248.868185 221.634799 
L 250.245069 224.479772 
L 251.621954 222.772788 
L 252.998838 224.042084 
L 254.375722 222.904095 
L 255.752607 224.829923 
L 257.129491 221.984949 
L 258.506376 223.910778 
L 259.88326 220.277965 
L 261.260144 223.122939 
L 262.637029 225.004998 
L 264.013913 224.129622 
L 265.390798 225.661531 
L 266.767682 226.580676 
L 268.144567 225.924144 
L 269.521451 226.011681 
L 270.898335 228.418967 
L 272.27522 225.617762 
L 273.652104 226.099219 
L 275.028989 227.018364 
L 276.405873 229.163037 
L 277.782758 228.28766 
L 279.159642 229.42565 
L 280.536526 227.062133 
L 281.913411 227.893741 
L 283.290295 228.375198 
L 284.66718 228.243892 
L 287.420948 228.462736 
L 288.797833 227.93751 
L 290.174717 228.637811 
L 291.551602 229.819569 
L 292.928486 229.513188 
L 295.682255 230.476102 
L 297.059139 230.257258 
L 298.436024 230.694946 
L 299.812908 230.607408 
L 301.189793 229.644494 
L 302.566677 229.42565 
L 303.943562 229.950876 
L 305.320446 230.213489 
L 306.69733 230.082182 
L 308.074215 230.476102 
L 309.451099 229.513188 
L 310.827984 229.994645 
L 313.581753 230.563639 
L 314.958637 230.038413 
L 316.335521 230.213489 
L 317.712406 230.16972 
L 319.08929 230.388564 
L 320.466175 230.213489 
L 323.219943 230.651177 
L 324.596828 230.738715 
L 325.973712 230.082182 
L 327.350597 230.432333 
L 331.48125 230.388564 
L 331.48125 230.388564 
" style="fill:none;stroke:#d62728;stroke-linecap:square;stroke-width:1.5;"/>
   </g>
   <g id="patch_3">
    <path d="M 43.78125 241.718125 
L 43.78125 22.318125 
" style="fill:none;stroke:#000000;stroke-linecap:square;stroke-linejoin:miter;stroke-width:0.8;"/>
   </g>
   <g id="patch_4">
    <path d="M 345.18125 241.718125 
L 345.18125 22.318125 
" style="fill:none;stroke:#000000;stroke-linecap:square;stroke-linejoin:miter;stroke-width:0.8;"/>
   </g>
   <g id="patch_5">
    <path d="M 43.78125 241.718125 
L 345.18125 241.718125 
" style="fill:none;stroke:#000000;stroke-linecap:square;stroke-linejoin:miter;stroke-width:0.8;"/>
   </g>
   <g id="patch_6">
    <path d="M 43.78125 22.318125 
L 345.18125 22.318125 
" style="fill:none;stroke:#000000;stroke-linecap:square;stroke-linejoin:miter;stroke-width:0.8;"/>
   </g>
   <g id="text_17">
    <!-- Training of VGGsmall on CIFAR10 -->
    <g transform="translate(95.770937 16.318125)scale(0.12 -0.12)">
     <defs>
      <path d="M -0.296875 72.90625 
L 61.375 72.90625 
L 61.375 64.59375 
L 35.5 64.59375 
L 35.5 0 
L 25.59375 0 
L 25.59375 64.59375 
L -0.296875 64.59375 
z
" id="DejaVuSans-84"/>
      <path d="M 9.421875 54.6875 
L 18.40625 54.6875 
L 18.40625 0 
L 9.421875 0 
z
M 9.421875 75.984375 
L 18.40625 75.984375 
L 18.40625 64.59375 
L 9.421875 64.59375 
z
" id="DejaVuSans-105"/>
      <path d="M 54.890625 33.015625 
L 54.890625 0 
L 45.90625 0 
L 45.90625 32.71875 
Q 45.90625 40.484375 42.875 44.328125 
Q 39.84375 48.1875 33.796875 48.1875 
Q 26.515625 48.1875 22.3125 43.546875 
Q 18.109375 38.921875 18.109375 30.90625 
L 18.109375 0 
L 9.078125 0 
L 9.078125 54.6875 
L 18.109375 54.6875 
L 18.109375 46.1875 
Q 21.34375 51.125 25.703125 53.5625 
Q 30.078125 56 35.796875 56 
Q 45.21875 56 50.046875 50.171875 
Q 54.890625 44.34375 54.890625 33.015625 
z
" id="DejaVuSans-110"/>
      <path d="M 45.40625 27.984375 
Q 45.40625 37.75 41.375 43.109375 
Q 37.359375 48.484375 30.078125 48.484375 
Q 22.859375 48.484375 18.828125 43.109375 
Q 14.796875 37.75 14.796875 27.984375 
Q 14.796875 18.265625 18.828125 12.890625 
Q 22.859375 7.515625 30.078125 7.515625 
Q 37.359375 7.515625 41.375 12.890625 
Q 45.40625 18.265625 45.40625 27.984375 
z
M 54.390625 6.78125 
Q 54.390625 -7.171875 48.1875 -13.984375 
Q 42 -20.796875 29.203125 -20.796875 
Q 24.46875 -20.796875 20.265625 -20.09375 
Q 16.0625 -19.390625 12.109375 -17.921875 
L 12.109375 -9.1875 
Q 16.0625 -11.328125 19.921875 -12.34375 
Q 23.78125 -13.375 27.78125 -13.375 
Q 36.625 -13.375 41.015625 -8.765625 
Q 45.40625 -4.15625 45.40625 5.171875 
L 45.40625 9.625 
Q 42.625 4.78125 38.28125 2.390625 
Q 33.9375 0 27.875 0 
Q 17.828125 0 11.671875 7.65625 
Q 5.515625 15.328125 5.515625 27.984375 
Q 5.515625 40.671875 11.671875 48.328125 
Q 17.828125 56 27.875 56 
Q 33.9375 56 38.28125 53.609375 
Q 42.625 51.21875 45.40625 46.390625 
L 45.40625 54.6875 
L 54.390625 54.6875 
z
" id="DejaVuSans-103"/>
      <path d="M 37.109375 75.984375 
L 37.109375 68.5 
L 28.515625 68.5 
Q 23.6875 68.5 21.796875 66.546875 
Q 19.921875 64.59375 19.921875 59.515625 
L 19.921875 54.6875 
L 34.71875 54.6875 
L 34.71875 47.703125 
L 19.921875 47.703125 
L 19.921875 0 
L 10.890625 0 
L 10.890625 47.703125 
L 2.296875 47.703125 
L 2.296875 54.6875 
L 10.890625 54.6875 
L 10.890625 58.5 
Q 10.890625 67.625 15.140625 71.796875 
Q 19.390625 75.984375 28.609375 75.984375 
z
" id="DejaVuSans-102"/>
      <path d="M 28.609375 0 
L 0.78125 72.90625 
L 11.078125 72.90625 
L 34.1875 11.53125 
L 57.328125 72.90625 
L 67.578125 72.90625 
L 39.796875 0 
z
" id="DejaVuSans-86"/>
      <path d="M 59.515625 10.40625 
L 59.515625 29.984375 
L 43.40625 29.984375 
L 43.40625 38.09375 
L 69.28125 38.09375 
L 69.28125 6.78125 
Q 63.578125 2.734375 56.6875 0.65625 
Q 49.8125 -1.421875 42 -1.421875 
Q 24.90625 -1.421875 15.25 8.5625 
Q 5.609375 18.5625 5.609375 36.375 
Q 5.609375 54.25 15.25 64.234375 
Q 24.90625 74.21875 42 74.21875 
Q 49.125 74.21875 55.546875 72.453125 
Q 61.96875 70.703125 67.390625 67.28125 
L 67.390625 56.78125 
Q 61.921875 61.421875 55.765625 63.765625 
Q 49.609375 66.109375 42.828125 66.109375 
Q 29.4375 66.109375 22.71875 58.640625 
Q 16.015625 51.171875 16.015625 36.375 
Q 16.015625 21.625 22.71875 14.15625 
Q 29.4375 6.6875 42.828125 6.6875 
Q 48.046875 6.6875 52.140625 7.59375 
Q 56.25 8.5 59.515625 10.40625 
z
" id="DejaVuSans-71"/>
      <path d="M 44.28125 53.078125 
L 44.28125 44.578125 
Q 40.484375 46.53125 36.375 47.5 
Q 32.28125 48.484375 27.875 48.484375 
Q 21.1875 48.484375 17.84375 46.4375 
Q 14.5 44.390625 14.5 40.28125 
Q 14.5 37.15625 16.890625 35.375 
Q 19.28125 33.59375 26.515625 31.984375 
L 29.59375 31.296875 
Q 39.15625 29.25 43.1875 25.515625 
Q 47.21875 21.78125 47.21875 15.09375 
Q 47.21875 7.46875 41.1875 3.015625 
Q 35.15625 -1.421875 24.609375 -1.421875 
Q 20.21875 -1.421875 15.453125 -0.5625 
Q 10.6875 0.296875 5.421875 2 
L 5.421875 11.28125 
Q 10.40625 8.6875 15.234375 7.390625 
Q 20.0625 6.109375 24.8125 6.109375 
Q 31.15625 6.109375 34.5625 8.28125 
Q 37.984375 10.453125 37.984375 14.40625 
Q 37.984375 18.0625 35.515625 20.015625 
Q 33.0625 21.96875 24.703125 23.78125 
L 21.578125 24.515625 
Q 13.234375 26.265625 9.515625 29.90625 
Q 5.8125 33.546875 5.8125 39.890625 
Q 5.8125 47.609375 11.28125 51.796875 
Q 16.75 56 26.8125 56 
Q 31.78125 56 36.171875 55.265625 
Q 40.578125 54.546875 44.28125 53.078125 
z
" id="DejaVuSans-115"/>
      <path d="M 52 44.1875 
Q 55.375 50.25 60.0625 53.125 
Q 64.75 56 71.09375 56 
Q 79.640625 56 84.28125 50.015625 
Q 88.921875 44.046875 88.921875 33.015625 
L 88.921875 0 
L 79.890625 0 
L 79.890625 32.71875 
Q 79.890625 40.578125 77.09375 44.375 
Q 74.3125 48.1875 68.609375 48.1875 
Q 61.625 48.1875 57.5625 43.546875 
Q 53.515625 38.921875 53.515625 30.90625 
L 53.515625 0 
L 44.484375 0 
L 44.484375 32.71875 
Q 44.484375 40.625 41.703125 44.40625 
Q 38.921875 48.1875 33.109375 48.1875 
Q 26.21875 48.1875 22.15625 43.53125 
Q 18.109375 38.875 18.109375 30.90625 
L 18.109375 0 
L 9.078125 0 
L 9.078125 54.6875 
L 18.109375 54.6875 
L 18.109375 46.1875 
Q 21.1875 51.21875 25.484375 53.609375 
Q 29.78125 56 35.6875 56 
Q 41.65625 56 45.828125 52.96875 
Q 50 49.953125 52 44.1875 
z
" id="DejaVuSans-109"/>
      <path d="M 9.421875 75.984375 
L 18.40625 75.984375 
L 18.40625 0 
L 9.421875 0 
z
" id="DejaVuSans-108"/>
      <path d="M 64.40625 67.28125 
L 64.40625 56.890625 
Q 59.421875 61.53125 53.78125 63.8125 
Q 48.140625 66.109375 41.796875 66.109375 
Q 29.296875 66.109375 22.65625 58.46875 
Q 16.015625 50.828125 16.015625 36.375 
Q 16.015625 21.96875 22.65625 14.328125 
Q 29.296875 6.6875 41.796875 6.6875 
Q 48.140625 6.6875 53.78125 8.984375 
Q 59.421875 11.28125 64.40625 15.921875 
L 64.40625 5.609375 
Q 59.234375 2.09375 53.4375 0.328125 
Q 47.65625 -1.421875 41.21875 -1.421875 
Q 24.65625 -1.421875 15.125 8.703125 
Q 5.609375 18.84375 5.609375 36.375 
Q 5.609375 53.953125 15.125 64.078125 
Q 24.65625 74.21875 41.21875 74.21875 
Q 47.75 74.21875 53.53125 72.484375 
Q 59.328125 70.75 64.40625 67.28125 
z
" id="DejaVuSans-67"/>
      <path d="M 9.8125 72.90625 
L 19.671875 72.90625 
L 19.671875 0 
L 9.8125 0 
z
" id="DejaVuSans-73"/>
      <path d="M 9.8125 72.90625 
L 51.703125 72.90625 
L 51.703125 64.59375 
L 19.671875 64.59375 
L 19.671875 43.109375 
L 48.578125 43.109375 
L 48.578125 34.8125 
L 19.671875 34.8125 
L 19.671875 0 
L 9.8125 0 
z
" id="DejaVuSans-70"/>
      <path d="M 34.1875 63.1875 
L 20.796875 26.90625 
L 47.609375 26.90625 
z
M 28.609375 72.90625 
L 39.796875 72.90625 
L 67.578125 0 
L 57.328125 0 
L 50.6875 18.703125 
L 17.828125 18.703125 
L 11.1875 0 
L 0.78125 0 
z
" id="DejaVuSans-65"/>
     </defs>
     <use xlink:href="#DejaVuSans-84"/>
     <use x="46.333984" xlink:href="#DejaVuSans-114"/>
     <use x="87.447266" xlink:href="#DejaVuSans-97"/>
     <use x="148.726562" xlink:href="#DejaVuSans-105"/>
     <use x="176.509766" xlink:href="#DejaVuSans-110"/>
     <use x="239.888672" xlink:href="#DejaVuSans-105"/>
     <use x="267.671875" xlink:href="#DejaVuSans-110"/>
     <use x="331.050781" xlink:href="#DejaVuSans-103"/>
     <use x="394.527344" xlink:href="#DejaVuSans-32"/>
     <use x="426.314453" xlink:href="#DejaVuSans-111"/>
     <use x="487.496094" xlink:href="#DejaVuSans-102"/>
     <use x="522.701172" xlink:href="#DejaVuSans-32"/>
     <use x="554.488281" xlink:href="#DejaVuSans-86"/>
     <use x="622.896484" xlink:href="#DejaVuSans-71"/>
     <use x="700.386719" xlink:href="#DejaVuSans-71"/>
     <use x="777.876953" xlink:href="#DejaVuSans-115"/>
     <use x="829.976562" xlink:href="#DejaVuSans-109"/>
     <use x="927.388672" xlink:href="#DejaVuSans-97"/>
     <use x="988.667969" xlink:href="#DejaVuSans-108"/>
     <use x="1016.451172" xlink:href="#DejaVuSans-108"/>
     <use x="1044.234375" xlink:href="#DejaVuSans-32"/>
     <use x="1076.021484" xlink:href="#DejaVuSans-111"/>
     <use x="1137.203125" xlink:href="#DejaVuSans-110"/>
     <use x="1200.582031" xlink:href="#DejaVuSans-32"/>
     <use x="1232.369141" xlink:href="#DejaVuSans-67"/>
     <use x="1302.193359" xlink:href="#DejaVuSans-73"/>
     <use x="1331.685547" xlink:href="#DejaVuSans-70"/>
     <use x="1380.080078" xlink:href="#DejaVuSans-65"/>
     <use x="1448.488281" xlink:href="#DejaVuSans-82"/>
     <use x="1517.970703" xlink:href="#DejaVuSans-49"/>
     <use x="1581.59375" xlink:href="#DejaVuSans-48"/>
    </g>
   </g>
   <g id="legend_1">
    <g id="patch_7">
     <path d="M 242.48125 89.030625 
L 338.18125 89.030625 
Q 340.18125 89.030625 340.18125 87.030625 
L 340.18125 29.318125 
Q 340.18125 27.318125 338.18125 27.318125 
L 242.48125 27.318125 
Q 240.48125 27.318125 240.48125 29.318125 
L 240.48125 87.030625 
Q 240.48125 89.030625 242.48125 89.030625 
z
" style="fill:#ffffff;opacity:0.8;stroke:#cccccc;stroke-linejoin:miter;"/>
    </g>
    <g id="line2d_24">
     <path d="M 244.48125 35.416563 
L 264.48125 35.416563 
" style="fill:none;stroke:#1f77b4;stroke-linecap:square;stroke-width:1.5;"/>
    </g>
    <g id="line2d_25"/>
    <g id="text_18">
     <!-- full precision -->
     <g transform="translate(272.48125 38.916563)scale(0.1 -0.1)">
      <defs>
       <path d="M 8.5 21.578125 
L 8.5 54.6875 
L 17.484375 54.6875 
L 17.484375 21.921875 
Q 17.484375 14.15625 20.5 10.265625 
Q 23.53125 6.390625 29.59375 6.390625 
Q 36.859375 6.390625 41.078125 11.03125 
Q 45.3125 15.671875 45.3125 23.6875 
L 45.3125 54.6875 
L 54.296875 54.6875 
L 54.296875 0 
L 45.3125 0 
L 45.3125 8.40625 
Q 42.046875 3.421875 37.71875 1 
Q 33.40625 -1.421875 27.6875 -1.421875 
Q 18.265625 -1.421875 13.375 4.4375 
Q 8.5 10.296875 8.5 21.578125 
z
M 31.109375 56 
z
" id="DejaVuSans-117"/>
      </defs>
      <use xlink:href="#DejaVuSans-102"/>
      <use x="35.205078" xlink:href="#DejaVuSans-117"/>
      <use x="98.583984" xlink:href="#DejaVuSans-108"/>
      <use x="126.367188" xlink:href="#DejaVuSans-108"/>
      <use x="154.150391" xlink:href="#DejaVuSans-32"/>
      <use x="185.9375" xlink:href="#DejaVuSans-112"/>
      <use x="249.414062" xlink:href="#DejaVuSans-114"/>
      <use x="288.277344" xlink:href="#DejaVuSans-101"/>
      <use x="349.800781" xlink:href="#DejaVuSans-99"/>
      <use x="404.78125" xlink:href="#DejaVuSans-105"/>
      <use x="432.564453" xlink:href="#DejaVuSans-115"/>
      <use x="484.664062" xlink:href="#DejaVuSans-105"/>
      <use x="512.447266" xlink:href="#DejaVuSans-111"/>
      <use x="573.628906" xlink:href="#DejaVuSans-110"/>
     </g>
    </g>
    <g id="line2d_26">
     <path d="M 244.48125 50.094688 
L 264.48125 50.094688 
" style="fill:none;stroke:#ff7f0e;stroke-linecap:square;stroke-width:1.5;"/>
    </g>
    <g id="line2d_27"/>
    <g id="text_19">
     <!-- 1 bit -->
     <g transform="translate(272.48125 53.594688)scale(0.1 -0.1)">
      <defs>
       <path d="M 48.6875 27.296875 
Q 48.6875 37.203125 44.609375 42.84375 
Q 40.53125 48.484375 33.40625 48.484375 
Q 26.265625 48.484375 22.1875 42.84375 
Q 18.109375 37.203125 18.109375 27.296875 
Q 18.109375 17.390625 22.1875 11.75 
Q 26.265625 6.109375 33.40625 6.109375 
Q 40.53125 6.109375 44.609375 11.75 
Q 48.6875 17.390625 48.6875 27.296875 
z
M 18.109375 46.390625 
Q 20.953125 51.265625 25.265625 53.625 
Q 29.59375 56 35.59375 56 
Q 45.5625 56 51.78125 48.09375 
Q 58.015625 40.1875 58.015625 27.296875 
Q 58.015625 14.40625 51.78125 6.484375 
Q 45.5625 -1.421875 35.59375 -1.421875 
Q 29.59375 -1.421875 25.265625 0.953125 
Q 20.953125 3.328125 18.109375 8.203125 
L 18.109375 0 
L 9.078125 0 
L 9.078125 75.984375 
L 18.109375 75.984375 
z
" id="DejaVuSans-98"/>
      </defs>
      <use xlink:href="#DejaVuSans-49"/>
      <use x="63.623047" xlink:href="#DejaVuSans-32"/>
      <use x="95.410156" xlink:href="#DejaVuSans-98"/>
      <use x="158.886719" xlink:href="#DejaVuSans-105"/>
      <use x="186.669922" xlink:href="#DejaVuSans-116"/>
     </g>
    </g>
    <g id="line2d_28">
     <path d="M 244.48125 64.772813 
L 264.48125 64.772813 
" style="fill:none;stroke:#2ca02c;stroke-linecap:square;stroke-width:1.5;"/>
    </g>
    <g id="line2d_29"/>
    <g id="text_20">
     <!-- 2 bits -->
     <g transform="translate(272.48125 68.272813)scale(0.1 -0.1)">
      <use xlink:href="#DejaVuSans-50"/>
      <use x="63.623047" xlink:href="#DejaVuSans-32"/>
      <use x="95.410156" xlink:href="#DejaVuSans-98"/>
      <use x="158.886719" xlink:href="#DejaVuSans-105"/>
      <use x="186.669922" xlink:href="#DejaVuSans-116"/>
      <use x="225.878906" xlink:href="#DejaVuSans-115"/>
     </g>
    </g>
    <g id="line2d_30">
     <path d="M 244.48125 79.450938 
L 264.48125 79.450938 
" style="fill:none;stroke:#d62728;stroke-linecap:square;stroke-width:1.5;"/>
    </g>
    <g id="line2d_31"/>
    <g id="text_21">
     <!-- 3 bits -->
     <g transform="translate(272.48125 82.950938)scale(0.1 -0.1)">
      <use xlink:href="#DejaVuSans-51"/>
      <use x="63.623047" xlink:href="#DejaVuSans-32"/>
      <use x="95.410156" xlink:href="#DejaVuSans-98"/>
      <use x="158.886719" xlink:href="#DejaVuSans-105"/>
      <use x="186.669922" xlink:href="#DejaVuSans-116"/>
      <use x="225.878906" xlink:href="#DejaVuSans-115"/>
     </g>
    </g>
   </g>
  </g>
 </g>
 <defs>
  <clipPath id="p57f6c35ca7">
   <rect height="219.4" width="301.4" x="43.78125" y="22.318125"/>
  </clipPath>
 </defs>
</svg>
